<svg xmlns="http://www.w3.org/2000/svg" width="267.528" height="148" viewBox="0 0 267.528 148">
  <g id="blog1" transform="translate(-292 -348.964)">
    <g id="Group_44" data-name="Group 44" transform="translate(309.993 348.964)">
      <path id="Path_94" data-name="Path 94" d="M677.806,503.153h-196.4l-.066-.068a112,112,0,0,1-13.968-17.251,85.106,85.106,0,0,1-9.976-21.316,134.989,134.989,0,0,1-5.548-42c.394-16.4,3.778-30.925,9.785-42.006,6.463-11.923,15.769-19.706,27.66-23.134a40.313,40.313,0,0,1,20.227-.3,81.977,81.977,0,0,1,19.226,7.267c7.917,4.007,15.641,8.75,23.112,13.337,6.478,3.978,13.177,8.092,19.971,11.706a118.735,118.735,0,0,0,22.847,9.553,67.914,67.914,0,0,0,24.048,2.769c6.52-.51,13.423-2.049,20.1-3.538,10.268-2.289,20.884-4.657,30.41-3.355a30.047,30.047,0,0,1,13.506,5.152c4.424,3.1,8.142,7.461,11.365,13.336a59.61,59.61,0,0,1,6.854,22.647,79.654,79.654,0,0,1-1.379,24.348,93.109,93.109,0,0,1-8.17,23.294,82.991,82.991,0,0,1-13.533,19.49ZM481.6,502.7H677.611A82.579,82.579,0,0,0,691,483.39a92.67,92.67,0,0,0,8.131-23.182A79.2,79.2,0,0,0,700.507,436a59.167,59.167,0,0,0-6.8-22.478c-3.19-5.813-6.863-10.126-11.229-13.184a29.606,29.606,0,0,0-13.308-5.074c-9.445-1.291-20.022,1.067-30.251,3.348-6.691,1.492-13.609,3.035-20.161,3.547a68.363,68.363,0,0,1-24.209-2.785,119.159,119.159,0,0,1-22.934-9.589c-6.806-3.62-13.511-7.738-20-11.72-7.462-4.582-15.179-9.321-23.079-13.319a81.536,81.536,0,0,0-19.118-7.229,39.872,39.872,0,0,0-20,.291c-11.77,3.393-20.985,11.1-27.388,22.916-13.161,24.278-11.4,60.388-4.2,83.666a84.663,84.663,0,0,0,9.924,21.2A111.441,111.441,0,0,0,481.6,502.7Z" transform="translate(-451.807 -355.153)" fill="#854648"/>
      <path id="Path_95" data-name="Path 95" d="M683.293,463.138c14.374-43.061,13.441-109.907-45.253-114.007-19.2-1.341-38.729,5.639-56.542,12.009-14.749,5.274-33.658,13.023-38.257,29.655-1.806,6.529-2.326,18.438-11.753,17.754-25.044-1.815-54.144-18.133-70.815,10.023-14.327,24.2-4.455,58.815,15.258,78.161H660.785C670.447,487.516,678.645,477.064,683.293,463.138Z" transform="translate(-453.646 -348.964)" fill="#292929"/>
    </g>
    <g id="Group_46" data-name="Group 46" transform="translate(348.341 361.169)">
      <g id="Group_45" data-name="Group 45" transform="translate(53.65 94.558)">
        <rect id="Rectangle_16" data-name="Rectangle 16" width="48.189" height="40.983" fill="#eb5d60"/>
        <path id="Path_96" data-name="Path 96" d="M1317.1,1329.373l-48.189-4.317V1302.4H1317.1Z" transform="translate(-1268.909 -1302.396)" fill="#cb3c3f" opacity="0.6"/>
      </g>
      <rect id="Rectangle_17" data-name="Rectangle 17" width="155.49" height="109.167" rx="34.021" transform="translate(0 0)" fill="#eb5d60"/>
      <rect id="Rectangle_18" data-name="Rectangle 18" width="140.775" height="96.905" rx="25" transform="translate(7.358 5.17)" fill="#1e1e1e"/>
      <path id="Path_97" data-name="Path 97" d="M909.857,719.61v59.406h-52.1v-61.7h49.807A2.29,2.29,0,0,1,909.857,719.61Z" transform="translate(-841.019 -688.282)" fill="#86a7ff" opacity="0.3"/>
      <path id="Path_98" data-name="Path 98" d="M1589.352,717.32v61.7H1534.64V719.61a2.29,2.29,0,0,1,2.29-2.29Z" transform="translate(-1451.071 -688.282)" fill="#86a7ff" opacity="0.3"/>
    </g>
    <g id="Group_53" data-name="Group 53" transform="translate(333.808 372.499)">
      <g id="Group_47" data-name="Group 47" transform="translate(0 7.893)">
        <path id="Path_99" data-name="Path 99" d="M665.323,703.466a3.6,3.6,0,0,0,3.6,3.6h69.935a3.6,3.6,0,0,0,3.6-3.6V632H665.323Z" transform="translate(-665.098 -631.775)" fill="#1e1e1e"/>
        <path id="Path_100" data-name="Path 100" d="M737.086,705.52H667.151a3.832,3.832,0,0,1-3.828-3.828V630h77.591v71.692A3.832,3.832,0,0,1,737.086,705.52ZM663.773,630.45v71.241a3.382,3.382,0,0,0,3.378,3.378h69.935a3.382,3.382,0,0,0,3.378-3.378V630.45Z" transform="translate(-663.323 -630)" fill="#eb5d60"/>
      </g>
      <g id="Group_49" data-name="Group 49" transform="translate(0 0)">
        <g id="Group_48" data-name="Group 48">
          <path id="Path_101" data-name="Path 101" d="M738.861,561.893H668.926a3.6,3.6,0,0,0-3.6,3.6v4.291h77.141V565.5A3.6,3.6,0,0,0,738.861,561.893Z" transform="translate(-665.098 -561.668)" fill="#eb5d60"/>
          <path id="Path_102" data-name="Path 102" d="M740.914,568.237H663.323v-4.516a3.832,3.832,0,0,1,3.828-3.828h69.935a3.832,3.832,0,0,1,3.828,3.828Zm-77.141-.45h76.691v-4.065a3.382,3.382,0,0,0-3.378-3.378H667.151a3.382,3.382,0,0,0-3.378,3.378Z" transform="translate(-663.323 -559.893)" fill="#eb5d60"/>
        </g>
        <circle id="Ellipse_34" data-name="Ellipse 34" cx="1.576" cy="1.576" r="1.576" transform="translate(4.43 2.564)" fill="#fff"/>
      </g>
      <g id="Group_51" data-name="Group 51" transform="translate(7.046 14.424)">
        <g id="Group_50" data-name="Group 50">
          <path id="Path_103" data-name="Path 103" d="M789.4,709.392h-63.5V688h63.5Zm-63.048-.45h62.6V688.45h-62.6Z" transform="translate(-725.906 -688)" fill="#484848"/>
          <rect id="Rectangle_19" data-name="Rectangle 19" width="63.048" height="0.45" transform="translate(0.225 15.707)" fill="#484848"/>
          <rect id="Rectangle_20" data-name="Rectangle 20" width="63.048" height="0.45" transform="translate(0.225 10.471)" fill="#484848"/>
          <rect id="Rectangle_21" data-name="Rectangle 21" width="63.048" height="0.45" transform="translate(0.225 5.236)" fill="#484848"/>
          <rect id="Rectangle_22" data-name="Rectangle 22" width="0.45" height="20.942" transform="translate(56.744 0.225)" fill="#484848"/>
          <rect id="Rectangle_23" data-name="Rectangle 23" width="0.45" height="20.942" transform="translate(50.439 0.225)" fill="#484848"/>
          <rect id="Rectangle_24" data-name="Rectangle 24" width="0.45" height="20.942" transform="translate(44.134 0.225)" fill="#484848"/>
          <rect id="Rectangle_25" data-name="Rectangle 25" width="0.45" height="20.942" transform="translate(37.829 0.225)" fill="#484848"/>
          <rect id="Rectangle_26" data-name="Rectangle 26" width="0.45" height="20.942" transform="translate(31.524 0.225)" fill="#484848"/>
          <rect id="Rectangle_27" data-name="Rectangle 27" width="0.45" height="20.942" transform="translate(25.219 0.225)" fill="#484848"/>
          <rect id="Rectangle_28" data-name="Rectangle 28" width="0.45" height="20.942" transform="translate(18.915 0.225)" fill="#484848"/>
          <rect id="Rectangle_29" data-name="Rectangle 29" width="0.45" height="20.942" transform="translate(12.61 0.225)" fill="#484848"/>
          <rect id="Rectangle_30" data-name="Rectangle 30" width="0.45" height="20.942" transform="translate(6.305 0.225)" fill="#484848"/>
        </g>
        <path id="Path_104" data-name="Path 104" d="M791.2,740.975a8,8,0,0,0-1.7-2.556,2.344,2.344,0,0,0-2.881-.376,4.528,4.528,0,0,0-.558.488c-.534.518-1.2,1.163-2.051.818a3.161,3.161,0,0,1-1.32-1.182,4.3,4.3,0,0,0-.694-.783c-.638-.519-1.431-.479-2.494.128l-.072.041c-.64.367-1.436.823-2.179-.044a2.807,2.807,0,0,1-.532-1.419,2.754,2.754,0,0,0-.365-1.128,2,2,0,0,0-2.461-.876,5.494,5.494,0,0,0-1.572,1.47c-.829.964-1.747,2.031-2.737,2.031a1.454,1.454,0,0,1-.729-.2c-.786-.447-.727-1.42-.675-2.278.048-.8.094-1.547-.433-1.878-.672-.422-1.544.332-1.966.942-.633.914-1.685,1.79-2.608,1.685-.391-.044-.934-.288-1.3-1.2a5.218,5.218,0,0,1-.2-2.268,6.835,6.835,0,0,0-.016-1.473c-.114-.7-.679-1.638-1.574-1.532-.637.075-.952.654-1.286,1.267a4.474,4.474,0,0,1-.633.96,1.167,1.167,0,0,1-1.125.471c-.417-.111-.733-.555-.915-1.283-.009-.035-.019-.081-.031-.135-.229-1.009-.4-1.155-.466-1.172-.009,0-.06.01-.148.112a1.591,1.591,0,0,0-.223,1.058,2.59,2.59,0,0,1-.138,1.033,1.43,1.43,0,0,1-1.117.823,2.066,2.066,0,0,1-1.809-.594,3.757,3.757,0,0,1-.694-3.053c.123-1.091.1-4.022-.683-4.471-.2-.112-.463-.045-.793.2a3.3,3.3,0,0,0-.848,2.113,12.079,12.079,0,0,1-1.535,4.82,1.943,1.943,0,0,1-1.245,1.093,1.19,1.19,0,0,1-.926-.245,2,2,0,0,1-.734-1.334,5.354,5.354,0,0,1,.053-1.271,6.286,6.286,0,0,0,.069-.944c-.019-.655-.385-1.365-.966-1.42-.3-.029-.883.492-1.35.911-.682.611-1.271,1.138-1.767.955-.274-.1-.439-.394-.506-.894-.011-.085-.017-.179-.023-.278-.026-.434-.067-.77-.323-.826a.446.446,0,0,0-.415.072c-.421.346-.4,1.608-.382,2.362a4.875,4.875,0,0,1-.023.853,1.834,1.834,0,0,1-.908,1.225,1.078,1.078,0,0,1-.957.037c-.657-.3-.776-1.1-.806-1.768l-.2-4.489c-.024-.533-.112-1.266-.6-1.475a.683.683,0,0,0-.54.008,1.572,1.572,0,0,0-.788.829,5.706,5.706,0,0,0-.25.816,4.411,4.411,0,0,1-.432,1.2,1.728,1.728,0,0,1-1.229.81,1.02,1.02,0,0,1-.877-.3,1.713,1.713,0,0,1-.265-1.457,3.3,3.3,0,0,0,.031-.72,1.172,1.172,0,0,0-.63-.907,2.3,2.3,0,0,0-1.956-.051l-.193-.407a2.742,2.742,0,0,1,2.368.064,1.6,1.6,0,0,1,.859,1.249,3.63,3.63,0,0,1-.031.822c-.051.451-.1.841.146,1.1a.564.564,0,0,0,.5.163,1.274,1.274,0,0,0,.891-.592,4.009,4.009,0,0,0,.382-1.078,6.137,6.137,0,0,1,.272-.88,2.013,2.013,0,0,1,1.035-1.071,1.131,1.131,0,0,1,.886,0c.719.309.842,1.214.872,1.869l.2,4.489c.024.536.108,1.177.545,1.38a.622.622,0,0,0,.564-.03,1.382,1.382,0,0,0,.67-.911,5.135,5.135,0,0,0,.014-.756c-.018-.943-.043-2.234.546-2.719a.9.9,0,0,1,.8-.164c.611.132.651.8.678,1.239.006.091.011.178.02.246.039.3.12.5.215.531.241.089.859-.464,1.311-.868.615-.551,1.2-1.071,1.693-1.024a1.792,1.792,0,0,1,1.373,1.856,6.732,6.732,0,0,1-.072,1.011,4.952,4.952,0,0,0-.053,1.165,1.555,1.555,0,0,0,.558,1.026.741.741,0,0,0,.581.161c.419-.069.716-.5.928-.872a11.626,11.626,0,0,0,1.477-4.64,3.711,3.711,0,0,1,1.026-2.43,1.136,1.136,0,0,1,1.287-.232c1.291.74.911,4.871.907,4.913a3.344,3.344,0,0,0,.579,2.7,1.6,1.6,0,0,0,1.4.453,1,1,0,0,0,.778-.557,2.236,2.236,0,0,0,.1-.854,1.961,1.961,0,0,1,.333-1.354.588.588,0,0,1,.6-.254c.444.111.644.837.8,1.509.011.05.021.093.029.126.133.536.355.894.593.957s.5-.155.684-.347a4.089,4.089,0,0,0,.563-.864c.357-.655.761-1.4,1.629-1.5a2.067,2.067,0,0,1,2.072,1.907,7.279,7.279,0,0,1,.021,1.572,4.889,4.889,0,0,0,.168,2.075c.225.565.538.873.93.918.736.084,1.649-.716,2.187-1.494.624-.9,1.7-1.619,2.576-1.067.753.473.694,1.436.643,2.287-.049.8-.094,1.551.448,1.859.95.54,1.942-.614,2.9-1.731a5.657,5.657,0,0,1,1.749-1.6,2.449,2.449,0,0,1,2.994,1.036,3.129,3.129,0,0,1,.44,1.309,2.437,2.437,0,0,0,.43,1.2c.477.557.9.354,1.613-.054l.073-.042c1.229-.7,2.211-.73,3-.087a4.7,4.7,0,0,1,.769.862,2.773,2.773,0,0,0,1.129,1.035c.539.218.971-.145,1.569-.724a4.828,4.828,0,0,1,.619-.538,2.78,2.78,0,0,1,3.429.41,8.34,8.34,0,0,1,1.811,2.7Z" transform="translate(-728.206 -719.591)" fill="#eb5d60"/>
        <circle id="Ellipse_35" data-name="Ellipse 35" cx="1.013" cy="1.013" r="1.013" transform="translate(14.686 8.419) rotate(-80.783)" fill="#102048"/>
        <circle id="Ellipse_36" data-name="Ellipse 36" cx="1.013" cy="1.013" r="1.013" transform="translate(43.283 14.599)" fill="#102048"/>
      </g>
      <g id="Group_52" data-name="Group 52" transform="translate(7.328 42.607)">
        <rect id="Rectangle_31" data-name="Rectangle 31" width="4.654" height="34.081" fill="#86a7ff"/>
        <rect id="Rectangle_32" data-name="Rectangle 32" width="4.654" height="29.424" transform="translate(9.714 4.693)" fill="#d3dfff"/>
        <rect id="Rectangle_33" data-name="Rectangle 33" width="4.654" height="23.547" transform="translate(19.427 10.616)" fill="#86a7ff"/>
        <rect id="Rectangle_34" data-name="Rectangle 34" width="4.654" height="19.928" transform="translate(29.141 14.252)" fill="#d3dfff"/>
        <rect id="Rectangle_35" data-name="Rectangle 35" width="4.654" height="25.556" transform="translate(38.855 8.575)" fill="#86a7ff"/>
        <rect id="Rectangle_36" data-name="Rectangle 36" width="4.654" height="16.267" transform="translate(48.568 17.896)" fill="#d3dfff"/>
        <rect id="Rectangle_37" data-name="Rectangle 37" width="4.654" height="7.189" transform="translate(58.282 27.128)" fill="#86a7ff"/>
      </g>
    </g>
    <g id="Group_62" data-name="Group 62" transform="translate(437.542 372.499)">
      <g id="Group_54" data-name="Group 54" transform="translate(0 7.893)">
        <path id="Path_105" data-name="Path 105" d="M1586.656,632v71.466a3.6,3.6,0,0,0,3.6,3.6h69.935a3.6,3.6,0,0,0,3.6-3.6V632Z" transform="translate(-1586.431 -631.775)" fill="#1e1e1e"/>
        <path id="Path_106" data-name="Path 106" d="M1658.419,705.52h-69.935a3.832,3.832,0,0,1-3.828-3.828V630h77.591v71.692A3.832,3.832,0,0,1,1658.419,705.52Zm-73.313-75.069v71.241a3.382,3.382,0,0,0,3.378,3.378h69.935a3.382,3.382,0,0,0,3.378-3.378V630.45Z" transform="translate(-1584.656 -630)" fill="#eb5d60"/>
      </g>
      <g id="Group_56" data-name="Group 56" transform="translate(0 0)">
        <g id="Group_55" data-name="Group 55">
          <path id="Path_107" data-name="Path 107" d="M1663.8,565.5a3.6,3.6,0,0,0-3.6-3.6h-69.935a3.6,3.6,0,0,0-3.6,3.6v4.291H1663.8Z" transform="translate(-1586.431 -561.668)" fill="#eb5d60"/>
          <path id="Path_108" data-name="Path 108" d="M1662.247,568.237h-77.591v-4.516a3.832,3.832,0,0,1,3.828-3.828h69.935a3.832,3.832,0,0,1,3.828,3.828Zm-77.141-.45H1661.8v-4.065a3.382,3.382,0,0,0-3.378-3.378h-69.935a3.382,3.382,0,0,0-3.378,3.378Z" transform="translate(-1584.656 -559.893)" fill="#eb5d60"/>
        </g>
        <circle id="Ellipse_37" data-name="Ellipse 37" cx="1.576" cy="1.576" r="1.576" transform="translate(4.805 2.564)" fill="#fff"/>
      </g>
      <g id="Group_58" data-name="Group 58" transform="translate(7.328 42.607)">
        <rect id="Rectangle_38" data-name="Rectangle 38" width="4.654" height="34.081" transform="translate(58.282)" fill="#86a7ff"/>
        <rect id="Rectangle_39" data-name="Rectangle 39" width="4.654" height="32.751" transform="translate(48.568 1.341)" fill="#d3dfff"/>
        <rect id="Rectangle_40" data-name="Rectangle 40" width="4.654" height="27.259" transform="translate(38.855 6.868)" fill="#86a7ff"/>
        <rect id="Rectangle_41" data-name="Rectangle 41" width="4.654" height="23.423" transform="translate(29.141 10.715)" fill="#d3dfff"/>
        <rect id="Rectangle_42" data-name="Rectangle 42" width="4.654" height="16.418" transform="translate(19.427 17.802)" fill="#86a7ff"/>
        <rect id="Rectangle_43" data-name="Rectangle 43" width="4.654" height="10.588" transform="translate(9.714 23.667)" fill="#d3dfff"/>
        <rect id="Rectangle_44" data-name="Rectangle 44" width="4.654" height="7.189" transform="translate(0 27.128)" fill="#86a7ff"/>
        <g id="Group_57" data-name="Group 57" transform="translate(2.638 5.287)">
          <path id="Path_109" data-name="Path 109" d="M1683.2,985.272h-8.687a1.348,1.348,0,0,0-1.348,1.349v5.307a1.348,1.348,0,0,0,1.348,1.349h5.461l1.64,2.579,1.643-2.585a1.346,1.346,0,0,0,1.292-1.343V986.62A1.348,1.348,0,0,0,1683.2,985.272Z" transform="translate(-1673.167 -985.272)" fill="#86a7ff"/>
          <path id="Path_110" data-name="Path 110" d="M1706.2,1001.237l.687,1.392,1.536.223-1.112,1.084.262,1.53-1.374-.722-1.374.722.262-1.53-1.112-1.084,1.536-.223Z" transform="translate(-1700.506 -999.439)" fill="#fff"/>
        </g>
      </g>
      <g id="Group_61" data-name="Group 61" transform="translate(7.046 14.424)">
        <g id="Group_59" data-name="Group 59">
          <path id="Path_111" data-name="Path 111" d="M1710.738,709.392h-63.5V688h63.5Zm-63.048-.45h62.6V688.45h-62.6Z" transform="translate(-1647.239 -688)" fill="#484848"/>
          <rect id="Rectangle_45" data-name="Rectangle 45" width="63.048" height="0.45" transform="translate(0.225 15.707)" fill="#484848"/>
          <rect id="Rectangle_46" data-name="Rectangle 46" width="63.048" height="0.45" transform="translate(0.225 10.471)" fill="#484848"/>
          <rect id="Rectangle_47" data-name="Rectangle 47" width="63.048" height="0.45" transform="translate(0.225 5.236)" fill="#484848"/>
          <rect id="Rectangle_48" data-name="Rectangle 48" width="0.45" height="20.942" transform="translate(56.744 0.225)" fill="#484848"/>
          <rect id="Rectangle_49" data-name="Rectangle 49" width="0.45" height="20.942" transform="translate(50.439 0.225)" fill="#484848"/>
          <rect id="Rectangle_50" data-name="Rectangle 50" width="0.45" height="20.942" transform="translate(44.134 0.225)" fill="#484848"/>
          <rect id="Rectangle_51" data-name="Rectangle 51" width="0.45" height="20.942" transform="translate(37.829 0.225)" fill="#484848"/>
          <rect id="Rectangle_52" data-name="Rectangle 52" width="0.45" height="20.942" transform="translate(31.524 0.225)" fill="#484848"/>
          <rect id="Rectangle_53" data-name="Rectangle 53" width="0.45" height="20.942" transform="translate(25.219 0.225)" fill="#484848"/>
          <rect id="Rectangle_54" data-name="Rectangle 54" width="0.45" height="20.942" transform="translate(18.915 0.225)" fill="#484848"/>
          <rect id="Rectangle_55" data-name="Rectangle 55" width="0.45" height="20.942" transform="translate(12.61 0.225)" fill="#484848"/>
          <rect id="Rectangle_56" data-name="Rectangle 56" width="0.45" height="20.942" transform="translate(6.305 0.225)" fill="#484848"/>
        </g>
        <g id="Group_60" data-name="Group 60" transform="translate(0.147 1.464)">
          <path id="Path_112" data-name="Path 112" d="M1653.783,724a1.871,1.871,0,0,1-.37-.039c-1-.2-1.185-1.1-1.332-1.828-.152-.75-.274-1.213-.852-1.262a4.158,4.158,0,0,0-2.356,1.378l-.328-.309c.426-.451,1.746-1.6,2.722-1.518.943.08,1.109.9,1.255,1.622.168.829.317,1.342.979,1.476,1.1.222,1.548-.9,1.948-2.163l1.392-4.411a5.07,5.07,0,0,1,1.008-2.037,1.9,1.9,0,0,1,2.26-.466,2.1,2.1,0,0,1,.85,1.944c0,.172-.005.352-.011.543a4.951,4.951,0,0,0,.212,2.054.988.988,0,0,0,.591.536.622.622,0,0,0,.532-.081c.524-.34.587-.977.653-1.651a4.055,4.055,0,0,1,.249-1.231,1.351,1.351,0,0,1,1.768-.718c1.5.551,1.434,2.366,1.388,3.567l0,.134a4.794,4.794,0,0,0,.7,2.932,1.128,1.128,0,0,0,.91.526.905.905,0,0,0,.72-.506,4.533,4.533,0,0,0,.4-2.024c.011-.221.023-.43.041-.631l.3-3.188c.124-1.321.583-2.111,1.325-2.284a1.031,1.031,0,0,1,.865.143,2.286,2.286,0,0,1,.708,1.69,5.076,5.076,0,0,1,0,.776c-.046.911-.027,1.521.635,1.693a1.108,1.108,0,0,0,1.1-.53,3.826,3.826,0,0,0,.436-1.567c.021-.157.042-.313.067-.466.176-1.068.4-2.325.7-3.555l0-.016a3.077,3.077,0,0,1,1.123-2.048,1.273,1.273,0,0,1,1.243-.1,2.641,2.641,0,0,1,1.155,1.957,9.417,9.417,0,0,1,.05,1.526,6.406,6.406,0,0,0,.157,1.976c.184.59.777,1.331,1.521,1.13.792-.214.956-.9,1.146-1.692.037-.154.075-.314.119-.467a9.389,9.389,0,0,1,1.9-4.034,2.124,2.124,0,0,1,2.536-.368c1.251.69,1.24,2.2,1.229,3.528a6.339,6.339,0,0,0,.148,1.838,1.654,1.654,0,0,0,1.054,1.2,1.336,1.336,0,0,0,1.107-.109,2.9,2.9,0,0,0,1.107-1.846l.059-.284a10.327,10.327,0,0,1,1.554-4.265,2.086,2.086,0,0,1,2.181-.753,2.413,2.413,0,0,1,1.681,1.946c.02.115.038.23.056.346a4.49,4.49,0,0,0,.239,1.031,1.142,1.142,0,0,0,.878.775,1.332,1.332,0,0,0,1.2-.586,5.383,5.383,0,0,0,.6-1.087c.107-.236.218-.479.348-.713a6.659,6.659,0,0,1,5.609-3.021,18.591,18.591,0,0,1,6.352,1.251l-.139.428a18.245,18.245,0,0,0-6.2-1.229,6.209,6.209,0,0,0-5.232,2.79c-.121.217-.229.452-.332.68a5.8,5.8,0,0,1-.651,1.176,1.776,1.776,0,0,1-1.613.757,1.593,1.593,0,0,1-1.234-1.051,4.892,4.892,0,0,1-.268-1.133c-.017-.112-.034-.224-.054-.336a1.962,1.962,0,0,0-1.356-1.589,1.652,1.652,0,0,0-1.72.611,10.046,10.046,0,0,0-1.456,4.065l-.059.285a3.246,3.246,0,0,1-1.318,2.14,1.77,1.77,0,0,1-1.466.153,2.1,2.1,0,0,1-1.354-1.494,6.629,6.629,0,0,1-.169-1.978c.01-1.263.02-2.569-1-3.13a1.672,1.672,0,0,0-2,.289,9.048,9.048,0,0,0-1.791,3.841c-.041.146-.078.3-.114.45-.2.815-.417,1.738-1.467,2.021a1.841,1.841,0,0,1-2.068-1.431,6.716,6.716,0,0,1-.178-2.119,8.944,8.944,0,0,0-.046-1.452,2.255,2.255,0,0,0-.906-1.616.835.835,0,0,0-.822.084c-.556.322-.753,1.122-.911,1.766l0,.016c-.3,1.215-.518,2.462-.692,3.521-.025.148-.044.3-.065.452a4.162,4.162,0,0,1-.5,1.75,1.536,1.536,0,0,1-1.592.723c-1.066-.279-1.011-1.361-.971-2.152a4.793,4.793,0,0,0,0-.7c-.1-.9-.337-1.241-.52-1.371a.592.592,0,0,0-.5-.072c-.713.167-.92,1.254-.98,1.888l-.3,3.188c-.018.192-.029.4-.04.613a4.917,4.917,0,0,1-.465,2.231,1.35,1.35,0,0,1-1.085.726,1.548,1.548,0,0,1-1.294-.709,5.228,5.228,0,0,1-.789-3.215l.005-.134c.043-1.135.1-2.689-1.093-3.127a.906.906,0,0,0-1.2.477,3.68,3.68,0,0,0-.213,1.093,2.4,2.4,0,0,1-.856,1.984,1.068,1.068,0,0,1-.9.136,1.429,1.429,0,0,1-.875-.78,5.249,5.249,0,0,1-.253-2.255c.005-.187.011-.365.01-.529a1.689,1.689,0,0,0-.632-1.559,1.447,1.447,0,0,0-1.7.39,4.728,4.728,0,0,0-.905,1.863l-1.389,4.4C1655.578,722.445,1655.088,724,1653.783,724Z" transform="translate(-1648.546 -707.567)" fill="#eb5d60"/>
          <circle id="Ellipse_38" data-name="Ellipse 38" cx="1.013" cy="1.013" r="1.013" transform="translate(18.291 14.412)" fill="#102048"/>
          <circle id="Ellipse_39" data-name="Ellipse 39" cx="1.013" cy="1.013" r="1.013" transform="translate(55.784)" fill="#102048"/>
        </g>
      </g>
    </g>
    <g id="Group_71" data-name="Group 71" transform="translate(487.491 388.71)">
      <g id="Group_65" data-name="Group 65" transform="translate(13.475 46.008)">
        <g id="Group_63" data-name="Group 63" transform="translate(30.404 17.17)">
          <path id="Path_113" data-name="Path 113" d="M2426.705,1285.974a3.782,3.782,0,0,1-.649,1.009c-1.482,1.572-3.643-.167-5.13-4.76l-2.927-6,1.126-5.143a6.044,6.044,0,0,1,2.432-2.531,2.694,2.694,0,0,1,2.446.09C2426.931,1270.139,2428.21,1282.75,2426.705,1285.974Z" transform="translate(-2418 -1268.294)" fill="#102048"/>
          <path id="Path_114" data-name="Path 114" d="M2454.748,1285.974a3.788,3.788,0,0,1-.648,1.009c.049-13.9-2.518-17.8-4.5-18.438a2.693,2.693,0,0,1,2.445.09C2454.973,1270.139,2456.252,1282.75,2454.748,1285.974Z" transform="translate(-2446.042 -1268.294)" fill="#86a7ff"/>
        </g>
        <g id="Group_64" data-name="Group 64" transform="translate(14.755 28.306)">
          <path id="Path_115" data-name="Path 115" d="M2285.362,1385.4a3.783,3.783,0,0,1-.854.842c-1.791,1.208-3.518-.962-3.959-5.77l-1.538-6.5,2.228-4.77a6.045,6.045,0,0,1,2.928-1.935,2.693,2.693,0,0,1,2.366.625C2289.058,1370,2287.537,1382.579,2285.362,1385.4Z" transform="translate(-2279.01 -1367.2)" fill="#102048"/>
          <path id="Path_116" data-name="Path 116" d="M2326,1385.4a3.792,3.792,0,0,1-.854.842c3.1-13.548,1.452-17.921-.342-18.976a2.693,2.693,0,0,1,2.366.625C2329.695,1370,2328.174,1382.579,2326,1385.4Z" transform="translate(-2319.647 -1367.2)" fill="#86a7ff"/>
        </g>
        <path id="Path_117" data-name="Path 117" d="M2166.881,1163.453a27.725,27.725,0,0,1-3.914,3.445,16.224,16.224,0,0,1-4.3,2.315c-2.774.919-5.7.6-7.778-2.945-3.878-6.6-3.04-21.649-2.32-29.233.266-2.77.518-4.544.518-4.544l12.948-3.49.153,1.094.428,3.026L2165,1150.1Z" transform="translate(-2147.961 -1127.514)" fill="#1f3c88"/>
        <path id="Path_118" data-name="Path 118" d="M2232.59,1263.73s-3.932,4.346-8.21,5.76c-4.657-9.462-1.022-27.49-1.022-27.49l7.354,8.372Z" transform="translate(-2213.67 -1227.791)" fill="#102048" opacity="0.6"/>
        <path id="Path_119" data-name="Path 119" d="M2251.264,1149.906s-7.49,13.061-16.136,9.832a5.711,5.711,0,0,1-2.189-1.545c-5.409-5.877-6.08-24.333-6.125-31.737-.013-1.941.018-3.121.018-3.121s2.6-.955,5.332-1.946c2.878-1.04,5.9-2.126,6.188-2.184.617-.122,1.148.522,1.6,1.671,2.135,5.382,2.6,21.825,2.6,21.825l6.9-3.941C2252.84,1142.588,2251.264,1149.906,2251.264,1149.906Z" transform="translate(-2217.933 -1118.808)" fill="#1f3c88"/>
        <path id="Path_120" data-name="Path 120" d="M2201.033,1231.921c-.514-3.665-.8-8.541-.84-9.33l-3.345-2.358.259-.368,3.523,2.484.006.109c0,.054.288,5.441.843,9.4Z" transform="translate(-2191.344 -1208.148)" fill="#eb5d60"/>
        <path id="Path_121" data-name="Path 121" d="M2281.657,1150.468a4.611,4.611,0,0,1-4.586-4.149l-3.061-30.474.448-.045,3.061,30.474a4.158,4.158,0,0,0,6.533,2.982l9.568-6.746.26.368-9.568,6.746A4.6,4.6,0,0,1,2281.657,1150.468Z" transform="translate(-2259.818 -1115.8)" fill="#eb5d60"/>
        <path id="Path_122" data-name="Path 122" d="M2174.81,1120.875a61.17,61.17,0,0,1-7.364,3.54c-1.725.7-3.666,1.405-5.778,2.04a60.682,60.682,0,0,1-8.269,1.874c.266-2.77.518-4.544.518-4.544l12.948-3.49.153,1.094c2.878-1.04,5.9-2.126,6.188-2.184C2173.824,1119.083,2174.355,1119.727,2174.81,1120.875Z" transform="translate(-2152.788 -1118.808)" fill="#102048" opacity="0.6"/>
      </g>
      <g id="Group_68" data-name="Group 68" transform="translate(0 0)">
        <g id="Group_66" data-name="Group 66">
          <path id="Path_123" data-name="Path 123" d="M2035.345,715.6l-2.513,4.242-3.229-.527c-.149-.725-.306-1.486-.455-2.252-.667-3.432-1.212-6.922-.595-7.318.437-.284.671.306.793.842-.108-.919-.18-2.4.405-2.68.617-.293.946,1.252,1.085,2.171-.09-.9-.153-2.45.455-2.846.685-.446.941,1.824,1.022,2.8-.036-.779-.036-2.355.554-2.5.7-.167.842,3.351.86,4.1,0-.405.054-1.536.639-1.473C2035.083,710.227,2035.345,715.6,2035.345,715.6Z" transform="translate(-2028.283 -707.171)" fill="#f9b384"/>
          <path id="Path_124" data-name="Path 124" d="M2042.157,782l-2.513,4.242-3.229-.527c-.149-.725-.306-1.486-.455-2.252Z" transform="translate(-2035.096 -773.575)" fill="#e28b6d"/>
          <path id="Path_125" data-name="Path 125" d="M2065.446,801.7l-8.687,10-1,1.144c-2.869-.775-5.3-2.918-7.327-5.679C2042.5,799.1,2040,785.715,2040,785.715l5.742-3.715C2052.272,807.446,2065.446,801.7,2065.446,801.7Z" transform="translate(-2038.681 -773.575)" fill="#eb5d60"/>
          <path id="Path_126" data-name="Path 126" d="M2123.45,1008.911l-.207,1.184-1,1.144c-2.869-.775-5.3-2.918-7.327-5.679C2116.577,1006.807,2120.783,1009.681,2123.45,1008.911Z" transform="translate(-2105.165 -971.964)" fill="#ab4446"/>
        </g>
        <path id="Path_127" data-name="Path 127" d="M2166.839,976.915c-4.477,2.986-10.048,3.846-15.29,4.143-1.527.086-3.053.113-4.58.049a8.682,8.682,0,0,1-2.315-.239c-1.351-.45-.45-1.576.676-2.59s1.576-16.438,1.576-16.438L2157.715,957l8.332,2.477.171,6.305.095,3.369.113,4.125a2.491,2.491,0,0,0,.883,1.824C2168.114,975.794,2167.537,976.451,2166.839,976.915Z" transform="translate(-2130.95 -928.871)" fill="#eb5d60"/>
        <path id="Path_128" data-name="Path 128" d="M2320.743,1038.369a6.3,6.3,0,0,1-2.743-1.792l2.648-1.576Z" transform="translate(-2285.38 -998.089)" fill="#ab4446"/>
        <g id="Group_67" data-name="Group 67" transform="translate(27.553 5.995)">
          <path id="Path_129" data-name="Path 129" d="M2493.414,767.466l1.191,4.785,3.244.421c.351-.652.72-1.336,1.082-2.027,1.623-3.1,3.146-6.284,2.668-6.841-.337-.4-.731.1-1,.58.367-.849.861-2.248.38-2.683-.507-.457-1.265.928-1.662,1.768.343-.833.849-2.3.38-2.857-.528-.624-1.425,1.477-1.781,2.386.258-.736.71-2.246.186-2.553-.625-.361-1.768,2.968-2,3.684.116-.388.389-1.487-.19-1.594C2495.2,762.4,2493.414,767.466,2493.414,767.466Z" transform="translate(-2468.597 -760.417)" fill="#f9b384"/>
          <path id="Path_130" data-name="Path 130" d="M2493.414,823.019l1.191,4.785,3.244.421c.351-.652.72-1.336,1.082-2.027Z" transform="translate(-2468.597 -815.971)" fill="#e28b6d"/>
          <path id="Path_131" data-name="Path 131" d="M2273,837.766s15.087,3.04,24.817-14.747l4.435,5.206s-12.527,20.554-24.185,20.237Z" transform="translate(-2273 -815.971)" fill="#eb5d60"/>
        </g>
        <path id="Path_132" data-name="Path 132" d="M2230.887,996.348a4.95,4.95,0,0,1-3.357-1.4l.331-.306c.1.113,2.614,2.74,6.116.086l.272.359A5.526,5.526,0,0,1,2230.887,996.348Z" transform="translate(-2205.097 -962.274)" fill="#ab4446"/>
        <rect id="Rectangle_57" data-name="Rectangle 57" width="10.905" height="0.45" transform="translate(15.131 44.591) rotate(-86.445)" fill="#ab4446"/>
        <path id="Path_133" data-name="Path 133" d="M2480.006,853.661a26.8,26.8,0,0,1-3.8-5.688l.4-.2a26.921,26.921,0,0,0,3.711,5.571Z" transform="translate(-2425.778 -831.941)" fill="#ab4446"/>
        <rect id="Rectangle_58" data-name="Rectangle 58" width="6.835" height="0.45" transform="translate(2.104 15.513) rotate(-31.073)" fill="#ab4446"/>
        <circle id="Ellipse_40" data-name="Ellipse 40" cx="0.751" cy="0.751" r="0.751" transform="translate(24.363 35.597)" fill="#652b14"/>
      </g>
      <g id="Group_70" data-name="Group 70" transform="translate(20.651 14.955)">
        <path id="Path_134" data-name="Path 134" d="M2244.917,905.338l-.821,6.345a2.654,2.654,0,0,1-2.972,2.293h0a2.654,2.654,0,0,1-2.291-2.974l.821-6.344Z" transform="translate(-2235.757 -897.377)" fill="#f9b384"/>
        <path id="Path_135" data-name="Path 135" d="M2242.142,922.8a5.5,5.5,0,0,1-3.116,3.55l.566-4.379Z" transform="translate(-2235.949 -912.739)" fill="#102048"/>
        <path id="Path_136" data-name="Path 136" d="M2224.477,862.631a48.354,48.354,0,0,0-1.022,6.435c-.09,1.541,1.958,3.936,5.615.612l2.25-2.139.175-3.7-3.375-1.5Z" transform="translate(-2222.128 -859.827)" fill="#f9b384"/>
        <path id="Path_137" data-name="Path 137" d="M2220.122,847.5s.34-2.044-.591-2.772c0,0-5.373,1.621-7.832-3.139a3.943,3.943,0,0,0,3.384-.625c1.634-1.106,4.444-1.779,5.987.964,0,0,3.858-.184.99,5.557Z" transform="translate(-2211.699 -840)" fill="#652b14"/>
        <ellipse id="Ellipse_41" data-name="Ellipse 41" cx="1.939" cy="1.638" rx="1.939" ry="1.638" transform="matrix(0.573, -0.819, 0.819, 0.573, 6.783, 8.464)" fill="#f9b384"/>
        <g id="Group_69" data-name="Group 69" transform="translate(1.779 4.995)">
          <path id="Path_138" data-name="Path 138" d="M2230.933,894.3a.3.3,0,1,1-.3-.3A.3.3,0,0,1,2230.933,894.3Z" transform="translate(-2230.014 -892.915)" fill="#102048"/>
          <path id="Path_139" data-name="Path 139" d="M2251.1,895.8a.3.3,0,1,1-.3-.3A.3.3,0,0,1,2251.1,895.8Z" transform="translate(-2247.91 -894.246)" fill="#102048"/>
          <path id="Path_140" data-name="Path 140" d="M2232.877,900.53a.111.111,0,0,1-.077-.031.836.836,0,0,1-.33-.749.987.987,0,0,1,.555-.613l.175-.716a.113.113,0,1,1,.219.053l-.2.825-.053.022s-.418.177-.473.472a.635.635,0,0,0,.264.544.112.112,0,0,1-.078.194Z" transform="translate(-2231.901 -896.761)" fill="#102048"/>
          <path id="Path_141" data-name="Path 141" d="M2228.887,884.9a.113.113,0,0,1-.083-.037.981.981,0,0,0-1.14-.163.113.113,0,1,1-.1-.2,1.213,1.213,0,0,1,1.412.212.112.112,0,0,1-.083.188Z" transform="translate(-2227.499 -884.36)" fill="#102048"/>
          <path id="Path_142" data-name="Path 142" d="M2249.1,888.235a.112.112,0,0,1-.084-.038,1.122,1.122,0,0,0-1.346-.238.113.113,0,0,1-.106-.2,1.366,1.366,0,0,1,1.619.287.113.113,0,0,1-.084.188Z" transform="translate(-2245.248 -887.243)" fill="#102048"/>
          <path id="Path_143" data-name="Path 143" d="M2235.715,918.121a1.836,1.836,0,0,1-.288-.02.113.113,0,0,1,.038-.222,1.821,1.821,0,0,0,1.53-.508.113.113,0,1,1,.168.15A1.919,1.919,0,0,1,2235.715,918.121Z" transform="translate(-2234.451 -913.621)" fill="#102048"/>
          <circle id="Ellipse_42" data-name="Ellipse 42" cx="1.093" cy="1.093" r="1.093" transform="translate(3.566 1.808)" fill="#eb5d60" opacity="0.4"/>
        </g>
        <path id="Path_144" data-name="Path 144" d="M2287.946,904.611a.114.114,0,0,1-.028,0,.113.113,0,0,1-.082-.137,1.253,1.253,0,0,1,.572-.74,1.276,1.276,0,0,1,1.058-.014.113.113,0,1,1-.076.212,1.063,1.063,0,0,0-.875,0,1.03,1.03,0,0,0-.46.6A.113.113,0,0,1,2287.946,904.611Z" transform="translate(-2279.261 -896.449)" fill="#102048"/>
      </g>
    </g>
    <rect id="Rectangle_59" data-name="Rectangle 59" width="262.413" height="0.45" transform="translate(292 496.509)" fill="#102048"/>
  </g>
</svg>
