<svg xmlns="http://www.w3.org/2000/svg" xmlns:xlink="http://www.w3.org/1999/xlink" width="159.231" height="148" viewBox="0 0 159.231 148">
  <defs>
    <clipPath id="clip-path">
      <path id="Path_156" data-name="Path 156" d="M990.783,728.9a5.671,5.671,0,0,0,5.671,5.671h62.989a5.671,5.671,0,0,0,5.671-5.671V690.579H990.783Z" transform="translate(-990.783 -690.579)" fill="none"/>
    </clipPath>
  </defs>
  <g id="blog2" transform="translate(-189.559 -239.497)">
    <g id="Group_75" data-name="Group 75" transform="translate(189.559 239.497)">
      <path id="Path_145" data-name="Path 145" d="M589.357,829.9l-.169-.177,1.064-1.015.169.177Zm2.125-2.036-.172-.175c.346-.34.692-.691,1.031-1.044l.177.17C592.177,827.172,591.829,827.525,591.482,827.867Zm2.042-2.125-.181-.165c.325-.357.652-.726.973-1.1l.185.16C594.179,825.012,593.85,825.383,593.523,825.742Zm1.927-2.23-.189-.156c.306-.373.614-.758.917-1.146l.193.151C596.067,822.751,595.757,823.138,595.45,823.512Zm1.814-2.322-.2-.146c.288-.386.578-.786.863-1.187l.2.142C597.844,820.4,597.553,820.8,597.264,821.19Zm1.706-2.4-.2-.137q.412-.608.811-1.224l.206.133Q599.382,818.178,598.969,818.788Zm13.426-1.7a3.588,3.588,0,0,1-1.32-.252l.091-.227a3.346,3.346,0,0,0,1.23.234c.061-.006.106,0,.159,0l.012.245C612.509,817.088,612.442,817.084,612.4,817.089Zm1.627-.419-.123-.212a2.661,2.661,0,0,0,.977-.987l.213.121A2.906,2.906,0,0,1,614.023,816.67Zm-13.452-.354-.208-.129q.387-.624.762-1.255l.211.125Q600.959,815.691,600.571,816.316Zm9.262-.341a4.3,4.3,0,0,1-.807-1.271l.226-.095a4.06,4.06,0,0,0,.76,1.2Zm5.663-1.843-.245-.005v-.065a2.545,2.545,0,0,0-.216-1.041q-.055-.123-.122-.239l.213-.121q.072.126.132.259a2.79,2.79,0,0,1,.238,1.141Zm-13.322-.257-.188-.158a9.328,9.328,0,0,1,1.044-1.061l.16.185A9.088,9.088,0,0,0,602.174,813.875Zm6.474-.622a5.957,5.957,0,0,1-.042-.709,6.286,6.286,0,0,1,.05-.788l.243.031a6.051,6.051,0,0,0-.048.757,5.693,5.693,0,0,0,.041.68Zm-4.289-1.268-.129-.208a10.088,10.088,0,0,1,1.32-.686l.1.225A9.841,9.841,0,0,0,604.359,811.985Zm9.613-.253a5.39,5.39,0,0,0-1.252-.7l.092-.227a5.637,5.637,0,0,1,1.309.73Zm-6.954-.895-.064-.236a10.53,10.53,0,0,1,1.458-.288l.03.243A10.289,10.289,0,0,0,607.017,810.837Zm4.314-.2a8.882,8.882,0,0,0-1.441-.151l.006-.245a9.155,9.155,0,0,1,1.481.156Zm-2.095-.248-.231-.083a7.329,7.329,0,0,1,.647-1.346l.209.128A7.081,7.081,0,0,0,609.237,810.386Zm1.5-2.45-.179-.167q.107-.115.219-.226a7.97,7.97,0,0,1,.9-.763l.145.2a7.708,7.708,0,0,0-.869.74Q610.838,807.824,610.735,807.935Zm2.32-1.709-.109-.219a9.125,9.125,0,0,1,1.384-.55l.072.234A8.909,8.909,0,0,0,613.054,806.227Zm2.765-.9-.061-.237c.479-.123.956-.251,1.417-.382l.067.236C616.779,805.074,616.3,805.2,615.819,805.326Zm2.835-.806-.073-.234c.473-.149.941-.3,1.392-.461l.081.231C619.6,804.215,619.129,804.371,618.654,804.521Zm2.783-.973-.089-.229c.459-.178.915-.365,1.356-.555l.1.225C622.358,803.18,621.9,803.368,621.437,803.547Zm2.708-1.169-.106-.221,1.322-.642.107.22Zm2.646-1.286-.107-.22,1.322-.643.107.22Zm2.645-1.286-.107-.22,1.322-.643.107.22Zm2.645-1.286-.107-.22,1.323-.643.107.22Zm2.645-1.286-.107-.22,1.323-.643.107.22Z" transform="translate(-550.014 -741.783)" fill="#9192ff"/>
      <path id="Path_146" data-name="Path 146" d="M1007.627,249.377a1.227,1.227,0,0,0,.006.15h32.228a5.1,5.1,0,0,0-5.233-4.787,5.469,5.469,0,0,0-2.507.6,5.716,5.716,0,0,0-2.785-5.11,5.915,5.915,0,0,0-8.021,2.414,6.438,6.438,0,0,0-.847,2.773,11.653,11.653,0,0,0-4.8-.978C1011.226,244.441,1007.627,246.652,1007.627,249.377Z" transform="translate(-927.435 -239.497)" fill="#ebebff"/>
      <path id="Path_147" data-name="Path 147" d="M216.134,1031.252H189.559l0-.095a4.251,4.251,0,0,1,4.378-4.01,4.615,4.615,0,0,1,1.961.437,4.785,4.785,0,0,1,2.328-4.117,4.622,4.622,0,0,1,3.541-.448,5.18,5.18,0,0,1,3.155,2.46,5.337,5.337,0,0,1,.7,2.181,9.675,9.675,0,0,1,3.852-.756c3.682,0,6.677,1.855,6.677,4.135a1.122,1.122,0,0,1-.005.133Zm-26.384-.184h26.216v-.031c0-2.179-2.913-3.952-6.493-3.952a9.427,9.427,0,0,0-3.9.793l-.121.055-.009-.133a5.147,5.147,0,0,0-.682-2.232,5,5,0,0,0-3.043-2.374,4.442,4.442,0,0,0-3.4.429,4.613,4.613,0,0,0-2.236,4.1l0,.154-.137-.07a4.419,4.419,0,0,0-2.012-.483A4.075,4.075,0,0,0,189.75,1031.068Z" transform="translate(-189.559 -946.062)" fill="#9192ff"/>
    </g>
    <g id="Group_89" data-name="Group 89" transform="translate(267.978 254.634)">
      <g id="Group_79" data-name="Group 79" transform="translate(0.122 29.081)">
        <g id="Group_78" data-name="Group 78" clip-path="url(#clip-path)">
          <path id="Path_148" data-name="Path 148" d="M990.783,728.9a5.671,5.671,0,0,0,5.671,5.671h62.989a5.671,5.671,0,0,0,5.671-5.671V690.579H990.783Z" transform="translate(-990.783 -690.579)" fill="#fff"/>
          <path id="Path_149" data-name="Path 149" d="M852.3,742.693a7.666,7.666,0,0,1,6.621-5.15,7.8,7.8,0,0,1,7.383,4.095,4.6,4.6,0,0,1,3.949,2.222,4.273,4.273,0,0,1-.138,4.41,6.238,6.238,0,0,1,4.454,3.264,5.852,5.852,0,0,1-.119,5.4,7.163,7.163,0,0,1,6.783.246,6.67,6.67,0,0,1,3.206,5.785,7.135,7.135,0,0,1,12.257.559,11.338,11.338,0,0,1,7.964-7.214,11.815,11.815,0,0,1,10.572,2.679c4.146.649,7.167,5.15,6.087,9.069a8.366,8.366,0,0,1,2.916,7.676,8.554,8.554,0,0,1-5.26,6.392l-71.333-.046-6.081-27.215Z" transform="translate(-856.187 -732.921)" fill="#d1d1ff"/>
          <g id="Group_76" data-name="Group 76" transform="translate(-15.406 13.634)" opacity="0.8">
            <path id="Path_150" data-name="Path 150" d="M844.008,834.844a7.285,7.285,0,0,1,13.531-1.067,4.31,4.31,0,0,1,3.677,6.63,5.934,5.934,0,0,1,4.181,8.656,6.581,6.581,0,0,1,9.645,6.023,6.777,6.777,0,0,1,11.842.549,10.918,10.918,0,0,1,17.912-4.55,7.588,7.588,0,0,1,5.874,9.064,8.347,8.347,0,0,1-2.276,14.07l-68.918.01-5.854-27.21Z" transform="translate(-833.624 -829.668)" fill="#fff"/>
          </g>
          <g id="Group_77" data-name="Group 77" transform="translate(-5.185 1.227)">
            <path id="Path_151" data-name="Path 151" d="M992.842,703.095c-20.645,19.415-35.285,24.65-53.729,26.522l-1.225,19.605,19.36,6.617c16.91-.49,33.146-24.969,43.175-45.97l-7.581-6.774" transform="translate(-937.888 -703.095)" fill="#fff2e0" opacity="0.7"/>
            <path id="Path_152" data-name="Path 152" d="M1395.76,705.669c-3.357,3.971-8.419,7.77-14.389,12.9l8.147-3.32a55.473,55.473,0,0,1-3.269,4.966,27.5,27.5,0,0,0,5.9-3.784c0,1.411-1.7,3.77-2.441,5.059,4.345-3.719,8.3-8.259,9.575-12.247l-3.522-3.573" transform="translate(-1337.898 -705.417)" fill="#ffa121"/>
            <path id="Path_153" data-name="Path 153" d="M1459.939,707.717c-1.985,2.632-4.957,5.169-8.469,8.586l4.754-2.256c-.6,1.093-1.462,2.623-1.945,3.282a16.633,16.633,0,0,0,3.457-2.536c-.015.923-1.024,2.484-1.466,3.334,2.556-2.477,4.893-5.488,5.673-8.109l-2-2.3" transform="translate(-1401.125 -707.264)" fill="#fff" opacity="0.4"/>
          </g>
          <path id="Path_154" data-name="Path 154" d="M1195.155,826.9c.026.614,0,1.65-.614,2-1.024.593-1.829-.846-2.2-1.569a1.556,1.556,0,0,1,.68-2.32C1194.355,824.5,1195.105,825.75,1195.155,826.9Z" transform="translate(-1172.353 -811.727)" fill="#d1d1ff"/>
          <path id="Path_155" data-name="Path 155" d="M1690.275,1017c.026.614,0,1.65-.614,2-1.024.593-1.829-.846-2.2-1.569a1.556,1.556,0,0,1,.68-2.32C1689.475,1014.61,1690.225,1015.858,1690.275,1017Z" transform="translate(-1618.939 -983.2)" fill="#d1d1ff"/>
          <circle id="Ellipse_43" data-name="Ellipse 43" cx="0.858" cy="0.858" r="0.858" transform="translate(16.503 7.367)" fill="#d1d1ff"/>
          <circle id="Ellipse_44" data-name="Ellipse 44" cx="1.306" cy="1.306" r="1.306" transform="translate(59.232 23.117) rotate(-26.428)" fill="#d1d1ff"/>
        </g>
      </g>
      <g id="Group_84" data-name="Group 84" transform="translate(0 14.11)">
        <path id="Path_157" data-name="Path 157" d="M1058.316,733.569H995.327a5.8,5.8,0,0,1-5.793-5.793V689.329h74.575v38.447A5.8,5.8,0,0,1,1058.316,733.569Zm-68.537-43.995v38.2a5.555,5.555,0,0,0,5.548,5.548h62.988a5.555,5.555,0,0,0,5.548-5.548v-38.2Z" transform="translate(-989.534 -674.481)" fill="#9192ff"/>
        <g id="Group_80" data-name="Group 80">
          <path id="Path_158" data-name="Path 158" d="M1059.443,539.112H996.454a5.671,5.671,0,0,0-5.671,5.671v9.177h74.331v-9.177A5.671,5.671,0,0,0,1059.443,539.112Z" transform="translate(-990.661 -538.989)" fill="#fff"/>
          <path id="Path_159" data-name="Path 159" d="M1064.109,552.954H989.534v-9.3a5.8,5.8,0,0,1,5.793-5.794h62.988a5.8,5.8,0,0,1,5.793,5.794Zm-74.33-.245h74.085v-9.054a5.555,5.555,0,0,0-5.548-5.549H995.327a5.555,5.555,0,0,0-5.548,5.549Z" transform="translate(-989.534 -537.861)" fill="#9192ff"/>
        </g>
        <g id="Group_83" data-name="Group 83" transform="translate(3.945 3.15)">
          <circle id="Ellipse_45" data-name="Ellipse 45" cx="3.109" cy="3.109" r="3.109" transform="matrix(0.199, -0.98, 0.98, 0.199, 0, 6.825)" fill="#d1d1ff"/>
          <g id="Group_81" data-name="Group 81" transform="translate(8.426 0)">
            <circle id="Ellipse_46" data-name="Ellipse 46" cx="3.109" cy="3.109" r="3.109" transform="translate(0 4.397) rotate(-45)" fill="#fff"/>
            <path id="Path_160" data-name="Path 160" d="M1130.853,588.342a3.232,3.232,0,1,1,3.232-3.232A3.235,3.235,0,0,1,1130.853,588.342Zm0-6.218a2.987,2.987,0,1,0,2.987,2.986A2.99,2.99,0,0,0,1130.853,582.124Z" transform="translate(-1126.456 -580.714)" fill="#9192ff"/>
          </g>
          <g id="Group_82" data-name="Group 82" transform="translate(21.021 1.307)">
            <rect id="Rectangle_61" data-name="Rectangle 61" width="18.314" height="5.935" rx="2.968" transform="translate(0.123 0.123)" fill="#fff"/>
            <path id="Path_161" data-name="Path 161" d="M1259.688,589.5h-12.379a3.09,3.09,0,1,1,0-6.18h12.379a3.09,3.09,0,0,1,0,6.18Zm-12.379-5.935a2.845,2.845,0,1,0,0,5.69h12.379a2.845,2.845,0,0,0,0-5.69Z" transform="translate(-1244.219 -583.322)" fill="#9192ff"/>
          </g>
        </g>
      </g>
      <g id="Group_88" data-name="Group 88" transform="translate(48.918 0)">
        <g id="Group_85" data-name="Group 85" transform="translate(0.407 7.469)">
          <path id="Path_162" data-name="Path 162" d="M1510.819,470.111c-4.964,4.345-13.525,1.35-16.186,4.82l7.6,6.02Z" transform="translate(-1494.445 -470.111)" fill="#eb5d60"/>
          <path id="Path_163" data-name="Path 163" d="M1492.9,519.283h0a2.939,2.939,0,0,0,.537,2.966l5.387,6.17,1.678-3.116Z" transform="translate(-1492.716 -514.463)" fill="#d1d1ff"/>
        </g>
        <g id="Group_86" data-name="Group 86" transform="translate(16.8 16.378)">
          <path id="Path_164" data-name="Path 164" d="M1695.544,561c-3.092,5.828,1.786,13.475-.982,16.86l-7.6-6.02Z" transform="translate(-1684.311 -560.998)" fill="#eb5d60"/>
          <path id="Path_165" data-name="Path 165" d="M1670.189,677.6h0a2.938,2.938,0,0,1-3.01.157l-7.241-3.829,2.649-2.348Z" transform="translate(-1659.938 -660.74)" fill="#d1d1ff"/>
        </g>
        <path id="Path_166" data-name="Path 166" d="M1751.648,393.916l-6.768,2.485,5.9,4.673Z" transform="translate(-1719.754 -393.916)" fill="#ff5b61"/>
        <path id="Path_167" data-name="Path 167" d="M1554.544,423.937c-.945,10.71-8.859,20.7-18.47,26.254l-8.758-6.928c3.675-11.563,10.519-19.837,21.327-24Z" transform="translate(-1523.517 -416.779)" fill="#ffa5a8"/>
        <path id="Path_168" data-name="Path 168" d="M1492.359,664.079l-3.8,2.63,10.867,8.6,1.691-4.307Z" transform="translate(-1488.56 -637.596)" fill="#eb5d60"/>
        <g id="Group_87" data-name="Group 87" transform="translate(18.069 7.24)">
          <circle id="Ellipse_47" data-name="Ellipse 47" cx="4.065" cy="4.065" r="4.065" transform="translate(0 0.96) rotate(-6.78)" fill="#fff"/>
          <path id="Path_169" data-name="Path 169" d="M1692.71,490.129l-.026-.244a2.666,2.666,0,0,0,.681-.165l.089.228A2.9,2.9,0,0,1,1692.71,490.129Zm-.765-.019a2.873,2.873,0,0,1-.734-.219l.1-.223a2.631,2.631,0,0,0,.671.2Zm2.179-.53-.145-.2a2.663,2.663,0,0,0,.5-.488l.192.152A2.894,2.894,0,0,1,1694.125,489.579Zm-3.562-.094a2.9,2.9,0,0,1-.522-.56l.2-.142a2.653,2.653,0,0,0,.478.512Zm4.411-.9-.217-.113a2.644,2.644,0,0,0,.238-.659l.239.052A2.882,2.882,0,0,1,1694.974,488.586Zm-5.29-.337a2.918,2.918,0,0,1-.166-.747l.244-.022a2.665,2.665,0,0,0,.153.684Zm5.369-1.133a2.688,2.688,0,0,0-.127-.689l.233-.076a2.918,2.918,0,0,1,.139.752Zm-5.26-.336-.241-.043a2.87,2.87,0,0,1,.234-.729l.221.105A2.639,2.639,0,0,0,1689.792,486.78Zm4.83-.985a2.656,2.656,0,0,0-.459-.53l.163-.183a2.893,2.893,0,0,1,.5.579Zm-4.235-.269-.186-.159a2.9,2.9,0,0,1,.569-.512l.138.2A2.648,2.648,0,0,0,1690.387,485.525Zm3.2-.653a2.636,2.636,0,0,0-.663-.226l.047-.24a2.886,2.886,0,0,1,.725.247Zm-2.049-.13-.08-.232a2.918,2.918,0,0,1,.75-.153l.017.245A2.669,2.669,0,0,0,1691.534,484.742Z" transform="translate(-1687.887 -482.732)" fill="#9192ff"/>
        </g>
        <rect id="Rectangle_62" data-name="Rectangle 62" width="1.566" height="13.598" rx="0.783" transform="translate(10.286 26.027) rotate(38.375)" fill="#1b1b43"/>
      </g>
    </g>
    <g id="Group_91" data-name="Group 91" transform="translate(295.368 341.52)">
      <path id="Path_170" data-name="Path 170" d="M1338.917,1383.8h-1.47v-.245h1.47Zm-2.941,0h-1.47v-.245h1.47Zm-2.941,0h-1.47v-.245h1.47Zm-2.941,0h-1.47v-.245h1.47Zm-2.941,0h-1.47v-.245h1.47Zm-2.941,0h-1.47v-.245h1.47Zm-2.941,0h-1.47v-.245h1.47Zm-2.941,0h-1.471v-.245h1.471Zm-2.941,0h-1.47v-.245h1.47Zm-2.941,0h-1.47v-.245h1.47Zm-2.942,0a4.691,4.691,0,0,1-1.481-.253l.079-.232a4.45,4.45,0,0,0,1.4.239Zm29.586,0-.009-.245a4.441,4.441,0,0,0,1.4-.279l.086.229A4.7,4.7,0,0,1,1339.094,1383.8Zm-32.393-.959a4.719,4.719,0,0,1-1.034-1.09l.2-.138a4.461,4.461,0,0,0,.981,1.034Zm35.171-.082-.154-.191a4.46,4.46,0,0,0,.951-1.061l.206.133A4.719,4.719,0,0,1,1341.872,1382.759Zm-36.842-2.369a4.7,4.7,0,0,1-.179-1.287v-.2h.245v.2a4.466,4.466,0,0,0,.169,1.22Zm38.444-.129-.238-.06a4.483,4.483,0,0,0,.136-1.1v-.331h.245v.331A4.718,4.718,0,0,1,1343.474,1380.261Zm-38.378-2.829h-.245v-1.47h.245Zm38.521-.13h-.245v-1.47h.245Zm-38.521-2.811h-.245v-1.47h.245Zm38.521-.13h-.245v-1.47h.245Zm-38.521-2.811h-.245v-1.47h.245Zm38.521-.13h-.245v-1.47h.245Zm-38.521-2.811h-.245v-1.47h.245Zm38.521-.13h-.245v-1.47h.245Zm-38.521-2.811h-.245v-1.47h.245Zm38.521-.13h-.245v-1.47h.245Zm-38.521-2.811h-.245v-.98a4.779,4.779,0,0,1,.027-.5l.244.026a4.55,4.55,0,0,0-.025.477Zm38.521-.13h-.245v-.85a4.575,4.575,0,0,0-.04-.6l.243-.032a4.767,4.767,0,0,1,.043.635Zm-38.12-2.7-.223-.1a4.708,4.708,0,0,1,.836-1.25l.18.167A4.452,4.452,0,0,0,1305.5,1359.9Zm37.42-.114a4.473,4.473,0,0,0-.825-1.161l.175-.172a4.709,4.709,0,0,1,.87,1.225Zm-35.5-1.945-.118-.215a4.666,4.666,0,0,1,1.417-.5l.044.241A4.421,4.421,0,0,0,1307.414,1357.839Zm33.53-.059a4.421,4.421,0,0,0-1.356-.436l.036-.242a4.665,4.665,0,0,1,1.431.46Zm-2.805-.486h-1.471v-.245h1.471Zm-2.941,0h-1.47v-.245h1.47Zm-2.941,0h-1.47v-.245h1.47Zm-2.941,0h-1.47v-.245h1.47Zm-2.941,0h-1.47v-.245h1.47Zm-2.941,0h-1.47v-.245h1.47Zm-2.941,0h-1.47v-.245h1.47Zm-2.941,0h-1.47v-.245h1.47Zm-2.941,0h-1.47v-.245h1.47Zm-2.941,0h-1.47v-.245h1.47Z" transform="translate(-1301.332 -1352.315)" fill="#9192ff"/>
      <rect id="Rectangle_63" data-name="Rectangle 63" width="38.522" height="27.24" rx="4" transform="translate(0 0)" fill="#ffa5a8"/>
      <g id="Group_90" data-name="Group 90" transform="translate(6.698 8.239)">
        <rect id="Rectangle_64" data-name="Rectangle 64" width="4.171" height="8.471" transform="translate(0 7.673)" fill="#fff"/>
        <rect id="Rectangle_65" data-name="Rectangle 65" width="4.171" height="8.199" transform="translate(6.985 7.945)" fill="#fff"/>
        <rect id="Rectangle_66" data-name="Rectangle 66" width="4.171" height="12.481" transform="translate(13.97 3.662)" fill="#fff"/>
        <rect id="Rectangle_67" data-name="Rectangle 67" width="4.171" height="16.143" transform="translate(20.955)" fill="#fff"/>
      </g>
      <rect id="Rectangle_68" data-name="Rectangle 68" width="22.38" height="0.978" transform="translate(8.071 3.836)" fill="#fff"/>
    </g>
    <g id="Group_108" data-name="Group 108" transform="translate(204.767 291.294)">
      <g id="Group_104" data-name="Group 104" transform="translate(3.537 0)">
        <g id="Group_92" data-name="Group 92" transform="translate(21.892 16.892)">
          <path id="Path_171" data-name="Path 171" d="M609.221,975.459a11.616,11.616,0,0,0-4.27-6.132l-.827-.61.7,14.531,5.431-4.2Z" transform="translate(-604.123 -968.717)" fill="#ffa121"/>
          <path id="Path_172" data-name="Path 172" d="M633.134,1088.071l-1.206-2.363a2.4,2.4,0,0,0-1.5-1.22l-3.55-.983-9.132-5.831-1.032-3.579-5.431,4.2.049,1.021a5.37,5.37,0,0,0,3.237,4.672l8.867,3.825,4.215.094c1.358.468,1.826,1.639,2.669,1.218.314-.157-.913-2.178-.913-2.178l2.037,2.248Z" transform="translate(-610.585 -1063.765)" fill="#ffbc96"/>
          <rect id="Rectangle_69" data-name="Rectangle 69" width="1.844" height="0.281" transform="translate(5.864 15.223) rotate(-49.665)" fill="#d28572"/>
        </g>
        <g id="Group_94" data-name="Group 94" transform="translate(28.559 46.469)">
          <path id="Path_173" data-name="Path 173" d="M672.133,1271.054l6.644-.587a7.836,7.836,0,0,1,8.3,7.7l1.5,32.722-9.165.286Z" transform="translate(-672.133 -1270.439)" fill="#e14248"/>
          <g id="Group_93" data-name="Group 93" transform="translate(8.015 39.524)">
            <path id="Path_174" data-name="Path 174" d="M753.9,1674.527l.281,9.039H767.76l-6.7-5.573-.421-4.355Z" transform="translate(-753.898 -1673.637)" fill="#1b1b43"/>
            <rect id="Rectangle_70" data-name="Rectangle 70" width="3.606" height="0.562" transform="matrix(0.792, -0.61, 0.61, 0.792, 4.137, 6.334)" fill="#fff"/>
          </g>
        </g>
        <g id="Group_96" data-name="Group 96" transform="translate(2.227 42.533)">
          <g id="Group_95" data-name="Group 95" transform="translate(31.256 43.46)">
            <path id="Path_175" data-name="Path 175" d="M722.366,1674.527l.281,9.039h13.581l-6.7-5.573-.422-4.355Z" transform="translate(-722.366 -1673.637)" fill="#d1d1ff"/>
            <rect id="Rectangle_71" data-name="Rectangle 71" width="3.607" height="0.562" transform="matrix(0.792, -0.61, 0.61, 0.792, 4.137, 6.334)" fill="#fff"/>
          </g>
          <path id="Path_176" data-name="Path 176" d="M444.883,1275.525h-11.24l-8.011-24.649-1.121-3.451-16.017-.07a4.432,4.432,0,0,1-2.74-1.149,6.521,6.521,0,0,1-2.178-5.9l1.4-10.023,23.795,3.094a10.686,10.686,0,0,1,9.085,8.418Z" transform="translate(-403.511 -1230.285)" fill="#eb5d60"/>
          <path id="Path_177" data-name="Path 177" d="M621.041,1405.141l-2.18,3.451-1.121-3.451Z" transform="translate(-596.739 -1388)" fill="#1b1b43"/>
        </g>
        <g id="Group_97" data-name="Group 97" transform="translate(0 16.049)">
          <path id="Path_178" data-name="Path 178" d="M404.378,984.785c-.115.464-.236.927-.36,1.394l-.843,3.442-11.1-.461-7.991-.332a3.433,3.433,0,0,1-3.22-4.131l3.726-17.93a6.806,6.806,0,0,1,6.025-5.713l9.118-.938,2.95.843c2.88,1.545,2.883,4.347,3.021,6.182A50.865,50.865,0,0,1,404.378,984.785Z" transform="translate(-380.791 -960.117)" fill="#ffa121"/>
          <path id="Path_179" data-name="Path 179" d="M438.638,1092.6c-.115.464,7.289,1.5,7.165,1.967l-.843,3.442-11.1-.461c-3.878-2.925-5.33-9.29-6.744-17.264Z" transform="translate(-422.576 -1068.502)" fill="#1b1b43" opacity="0.3"/>
          <path id="Path_180" data-name="Path 180" d="M521.366,1013.027a6.674,6.674,0,0,0,1.659,1.315,5.479,5.479,0,0,0,1.982.669,3.334,3.334,0,0,0,2.017-.3,2.074,2.074,0,0,0,1.083-1.656l.11.007a2.267,2.267,0,0,1-.279,1.069,2.131,2.131,0,0,1-.793.793,3.467,3.467,0,0,1-2.173.359,5.407,5.407,0,0,1-2.065-.74,5.832,5.832,0,0,1-1.624-1.45Z" transform="translate(-507.51 -1007.84)" fill="#1b1b43"/>
          <path id="Path_181" data-name="Path 181" d="M629.916,1029.333l-.21-.015a48.267,48.267,0,0,0-.608-10.327l.208-.031A48.455,48.455,0,0,1,629.916,1029.333Z" transform="translate(-604.757 -1013.192)" fill="#1b1b43"/>
        </g>
        <g id="Group_98" data-name="Group 98" transform="translate(33.577 25.767)">
          <rect id="Rectangle_72" data-name="Rectangle 72" width="10.444" height="2.061" transform="translate(0 16.391)" fill="#1b1b43"/>
          <path id="Path_182" data-name="Path 182" d="M821.22,1077.7H800.24l9.647-18.452h20.981Z" transform="translate(-792.7 -1059.25)" fill="#9192ff"/>
        </g>
        <g id="Group_101" data-name="Group 101" transform="translate(4.656)">
          <path id="Path_183" data-name="Path 183" d="M439.8,797.69c-2.459-2.424-7.1-1.405-7.025,2.669-5.058,1.335-5.339,6.884-3.3,9.729l1.756.14.386-2.072,1.019,2.108,4.917.316Z" transform="translate(-428.288 -796.393)" fill="#1b1b43"/>
          <path id="Path_184" data-name="Path 184" d="M521.682,902.07v7.741c0,.07,0,.138-.008.205a2.6,2.6,0,0,1-3.24,2.313,5.226,5.226,0,0,1-3.92-5.1l.039-5.156Z" transform="translate(-506.062 -891.711)" fill="#ffbc96"/>
          <path id="Path_185" data-name="Path 185" d="M541.1,929.333v4.395c0,.07,0,.138-.008.205-2.071-.34-4.465-2.737-5.049-5.347Z" transform="translate(-525.481 -915.628)" fill="#1b1b43"/>
          <path id="Path_186" data-name="Path 186" d="M525.254,844.78a13.961,13.961,0,0,1-.441,1.843c-.618,1.964-1.728,3.594-3.715,3.31-4.67-.669-7.269-5.479-7.269-5.479l3.195-3.653,2.144-2.883,6.426,2.776A24.167,24.167,0,0,1,525.254,844.78Z" transform="translate(-505.444 -833.847)" fill="#ffbc96"/>
          <path id="Path_187" data-name="Path 187" d="M498.65,811.3c2.05-.066,3.635-1.11,4.309-4.074,0,0,4.777,4.121,7.118,1.92,1.961-1.843-1.366-6.084-6.872-6.589a7.8,7.8,0,0,0-5.577,1.7c-2.669,2.138-2.924,7.112-.43,8.833Z" transform="translate(-488.883 -801.921)" fill="#1b1b43"/>
          <path id="Path_188" data-name="Path 188" d="M502.88,807.981a2.189,2.189,0,0,1,.182-1.483,3.3,3.3,0,0,1,.962-1.184,3.388,3.388,0,0,1,1.377-.644,2.481,2.481,0,0,1,1.484.114,8.194,8.194,0,0,0-1.27.514,6.894,6.894,0,0,0-1.073.682,6.209,6.209,0,0,0-.919.869A5.15,5.15,0,0,0,502.88,807.981Z" transform="translate(-495.513 -803.804)" fill="#ffa121"/>
          <g id="Group_99" data-name="Group 99" transform="translate(6.951 7.317)">
            <ellipse id="Ellipse_48" data-name="Ellipse 48" cx="1.598" cy="1.931" rx="1.598" ry="1.931" transform="translate(0 1.188) rotate(-21.816)" fill="#ffbc96"/>
            <path id="Path_189" data-name="Path 189" d="M516.432,888.94a2.291,2.291,0,0,0-.062-.964,2.625,2.625,0,0,0-.505-.827l.069-.086a1.4,1.4,0,0,1,.6,1.909Z" transform="translate(-514.231 -885.492)" fill="#1b1b43"/>
          </g>
          <g id="Group_100" data-name="Group 100" transform="translate(12.741 8.054)">
            <path id="Path_190" data-name="Path 190" d="M591.218,890.8a.477.477,0,1,1-.475-.525A.5.5,0,0,1,591.218,890.8Z" transform="translate(-587.131 -889.129)" fill="#1b1b43"/>
            <path id="Path_191" data-name="Path 191" d="M617.619,895.085a.425.425,0,1,1-.362-.516A.447.447,0,0,1,617.619,895.085Z" transform="translate(-611.04 -892.996)" fill="#1b1b43"/>
            <path id="Path_192" data-name="Path 192" d="M581.9,878.909c.019.245-.374.269-.952.286s-.978.2-.983.041.423-.554.994-.65C581.551,878.486,581.881,878.617,581.9,878.909Z" transform="translate(-577.84 -878.553)" fill="#1b1b43"/>
            <path id="Path_193" data-name="Path 193" d="M618.52,881.817c-.043.242.246.3.674.379s.7.292.725.139a1.039,1.039,0,0,0-.663-.745C618.83,881.433,618.57,881.53,618.52,881.817Z" transform="translate(-612.609 -881.225)" fill="#1b1b43"/>
            <path id="Path_194" data-name="Path 194" d="M610.655,904.311a4.124,4.124,0,0,0,.356.369l.19.176a1.071,1.071,0,0,1,.2.224.4.4,0,0,1,.06.187.37.37,0,0,1-.047.2.692.692,0,0,1-.227.229,1.418,1.418,0,0,1-.525.19l-.041-.1a3.889,3.889,0,0,0,.419-.286.538.538,0,0,0,.131-.157c.022-.047.016-.063-.011-.117-.062-.1-.222-.239-.326-.381a1.59,1.59,0,0,1-.276-.479Z" transform="translate(-605.432 -901.786)" fill="#1b1b43"/>
            <path id="Path_195" data-name="Path 195" d="M586.425,921.954a3.524,3.524,0,0,0,.946.823,1.982,1.982,0,0,0,1.195.207l.029.106a1.476,1.476,0,0,1-.679.128,1.551,1.551,0,0,1-.678-.2,2.172,2.172,0,0,1-.905-1.01Z" transform="translate(-583.581 -917.699)" fill="#1b1b43"/>
            <circle id="Ellipse_49" data-name="Ellipse 49" cx="1.16" cy="1.16" r="1.16" transform="translate(0 1.637)" fill="#fe5b52" opacity="0.2"/>
            <path id="Path_196" data-name="Path 196" d="M623.658,907.918a13.952,13.952,0,0,1-.441,1.843,1.159,1.159,0,0,1,.441-1.843Z" transform="translate(-616.588 -905.039)" fill="#fe5b52" opacity="0.2"/>
          </g>
        </g>
        <g id="Group_103" data-name="Group 103" transform="translate(4.541 22.679)">
          <g id="Group_102" data-name="Group 102" transform="translate(0 1.964)">
            <path id="Path_197" data-name="Path 197" d="M433.814,1047.784l-6.7,3.185,2.1,4.979,7.022-3.238Z" transform="translate(-427.117 -1047.784)" fill="#ffa121"/>
            <path id="Path_198" data-name="Path 198" d="M745.722,1221.29c-.186-.093-.3-.155-.3-.155l.067-.132s.124.059.3.156Z" transform="translate(-714.218 -1204.023)" fill="#c5c5ff"/>
            <path id="Path_199" data-name="Path 199" d="M480.712,1111.059c-.216.427-1.874-.329-2.647-.708.6.332,1.63.983,1.172,1.34-.368.284-1.183-.32-3.852-1.427.4.191,2.79,1.326,2.189,1.756-.655.466-3.465-.562-3.465-.562l-2.436,1.309h-2.81l-10.11.065a7.377,7.377,0,0,1-1.874-.236,8.408,8.408,0,0,1-3.288-1.7,8.255,8.255,0,0,1-1.559-1.751,9.342,9.342,0,0,1-.835-1.562l-2.667-6.317,7.022-3.24,3.664,7.438,12.083,2.625,3.372-.843a3.547,3.547,0,0,1,2.388.514C478.616,1108.71,480.914,1110.652,480.712,1111.059Z" transform="translate(-446.431 -1093.099)" fill="#ffbc96"/>
          </g>
          <path id="Path_200" data-name="Path 200" d="M489.276,1207.577a3.06,3.06,0,0,1-.183,1.045,8.406,8.406,0,0,1-3.288-1.7,8.258,8.258,0,0,1-1.56-1.751,3.092,3.092,0,0,1,5.03,2.408Z" transform="translate(-478.646 -1187.16)" fill="#fe5b52" opacity="0.2"/>
          <path id="Path_201" data-name="Path 201" d="M680.626,1191.9a22.925,22.925,0,0,1,2.553-.7,9.137,9.137,0,0,1,1.319-.188,3.984,3.984,0,0,1,.678.018c.113.022.225.052.338.079s.212.081.318.122a10.891,10.891,0,0,1,2.231,1.454c.692.552,1.346,1.145,1.981,1.763l.029.029.006.036a.532.532,0,0,1-.067.38.453.453,0,0,1-.153.135.44.44,0,0,1-.176.061,1.451,1.451,0,0,1-.631-.062,6.262,6.262,0,0,1-1.091-.458c-.344-.184-.683-.375-1.011-.581s-.652-.42-.977-.63l.148-.237a17.454,17.454,0,0,1,1.668,1.1,4.472,4.472,0,0,1,.754.693,1,1,0,0,1,.146.247.46.46,0,0,1,.034.171.329.329,0,0,1-.072.192.514.514,0,0,1-.285.159,1.652,1.652,0,0,1-.27.039l-.028,0-.03-.013-3.05-1.278.091-.214a10.617,10.617,0,0,1,1.394.752,1.9,1.9,0,0,1,.606.565.329.329,0,0,1,.025.269.362.362,0,0,1-.181.186,1.014,1.014,0,0,1-.42.094,5.922,5.922,0,0,1-1.57-.242c-.508-.134-1.007-.292-1.5-.471l.037-.1c.493.165.995.311,1.5.431a5.8,5.8,0,0,0,1.523.2c.239-.009.524-.115.408-.272a1.778,1.778,0,0,0-.543-.479,10.459,10.459,0,0,0-1.372-.716l.091-.214,3.061,1.251-.057-.01a1.445,1.445,0,0,0,.22-.032.279.279,0,0,0,.144-.069c.043-.017-.015-.168-.111-.281a4.252,4.252,0,0,0-.709-.642,17.249,17.249,0,0,0-1.644-1.078l.149-.237c.323.207.637.43.966.626s.656.395.992.576a6.03,6.03,0,0,0,1.037.442,1.226,1.226,0,0,0,.508.059l.054-.01a.3.3,0,0,0,.041-.021c.033-.009.042-.035.064-.051a.283.283,0,0,0,.03-.177l.035.064c-.622-.613-1.276-1.2-1.951-1.757a10.7,10.7,0,0,0-2.161-1.449l-.3-.118c-.1-.025-.2-.053-.3-.075a3.807,3.807,0,0,0-.639-.024,9.22,9.22,0,0,0-1.3.157,22.828,22.828,0,0,0-2.551.639Z" transform="translate(-655.775 -1175.001)" fill="#d28572"/>
          <path id="Path_202" data-name="Path 202" d="M448.167,1037.969l-.088-.191,6.929-3.2-2.886-6.754.194-.083,2.966,6.942Z" transform="translate(-446.024 -1027.744)" fill="#1b1b43"/>
        </g>
      </g>
      <g id="Group_105" data-name="Group 105" transform="translate(0 59.533)">
        <rect id="Rectangle_73" data-name="Rectangle 73" width="0.368" height="31.659" transform="translate(10.845 2.95)" fill="#c6c6c8"/>
        <rect id="Rectangle_74" data-name="Rectangle 74" width="22.058" height="4.355" rx="2.178" fill="#d1d1ff"/>
        <path id="Rectangle_75" data-name="Rectangle 75" d="M3.634,0h7.624a3.634,3.634,0,0,1,3.634,3.634v0a0,0,0,0,1,0,0H0a0,0,0,0,1,0,0v0A3.634,3.634,0,0,1,3.634,0Z" transform="translate(3.583 33.035)" fill="#d1d1ff"/>
      </g>
      <g id="Group_107" data-name="Group 107" transform="translate(20.489 44.219)">
        <g id="Group_106" data-name="Group 106" transform="translate(11.64 1.934)">
          <rect id="Rectangle_76" data-name="Rectangle 76" width="0.368" height="58.806" transform="translate(0.006 0.196) rotate(-32.247)" fill="#1b1b43"/>
          <rect id="Rectangle_77" data-name="Rectangle 77" width="58.806" height="0.368" transform="translate(0 49.732) rotate(-57.738)" fill="#1b1b43"/>
        </g>
        <rect id="Rectangle_78" data-name="Rectangle 78" width="54.981" height="4.146" fill="#d1d1ff"/>
      </g>
    </g>
    <g id="Group_110" data-name="Group 110" transform="translate(218.375 243.705)">
      <path id="Path_203" data-name="Path 203" d="M495.014,361.662a11.49,11.49,0,1,1,11.49-11.49A11.5,11.5,0,0,1,495.014,361.662Zm0-22.735a11.245,11.245,0,1,0,11.245,11.245A11.258,11.258,0,0,0,495.014,338.927Z" transform="translate(-483.524 -333.168)" fill="#9192ff"/>
      <g id="Group_109" data-name="Group 109" transform="translate(6.758)">
        <circle id="Ellipse_50" data-name="Ellipse 50" cx="12.502" cy="12.502" r="12.502" fill="#ebebff"/>
        <path id="Path_204" data-name="Path 204" d="M616.274,359.728l-6.931-5.433.227-.289,6.695,5.249L620,356.093l.238.281Z" transform="translate(-603.768 -346.989)" fill="#1b1b43"/>
      </g>
    </g>
    <g id="Group_112" data-name="Group 112" transform="translate(196.872 282.161)">
      <g id="Group_111" data-name="Group 111" transform="translate(0 0)">
        <path id="Path_205" data-name="Path 205" d="M273.615,685h-6.348a1.85,1.85,0,0,0-1.85,1.85V693.2a1.85,1.85,0,0,0,1.85,1.85h4.53l1.952,2.7v-2.7a1.849,1.849,0,0,0,1.715-1.843V686.85A1.85,1.85,0,0,0,273.615,685Z" transform="translate(-265.294 -684.877)" fill="#fff"/>
        <path id="Path_206" data-name="Path 206" d="M272.743,696.994l-2.137-2.951h-4.468a1.975,1.975,0,0,1-1.972-1.972v-6.348a1.975,1.975,0,0,1,1.972-1.972h6.348a1.975,1.975,0,0,1,1.972,1.972v6.348a1.978,1.978,0,0,1-1.715,1.954Zm-6.605-13a1.729,1.729,0,0,0-1.727,1.727v6.348a1.729,1.729,0,0,0,1.727,1.727h4.593l1.767,2.44V693.8l.114-.008a1.732,1.732,0,0,0,1.6-1.721v-6.348a1.729,1.729,0,0,0-1.727-1.727Z" transform="translate(-264.166 -683.75)" fill="#9192ff"/>
      </g>
      <path id="Path_207" data-name="Path 207" d="M291.958,710.432l-2.541-3.671.6-.419,1.87,2.7,2.816-5.04.642.359Z" transform="translate(-286.941 -702.018)" fill="#9192ff"/>
    </g>
    <rect id="Rectangle_79" data-name="Rectangle 79" width="150.612" height="0.368" transform="translate(194.504 387.129)" fill="#1b1b43"/>
  </g>
</svg>
