<svg xmlns="http://www.w3.org/2000/svg" width="263.141" height="148.562" viewBox="0 0 263.141 148.562">
  <g id="blog3" transform="translate(-47.544 -54.217)">
    <g id="Group_115" data-name="Group 115" transform="translate(50.773 54.779)">
      <g id="Group_114" data-name="Group 114" transform="translate(0 0)">
        <rect id="Rectangle_80" data-name="Rectangle 80" width="245.968" height="131.999" fill="none" stroke="#484848" stroke-miterlimit="10" stroke-width="1.124"/>
        <line id="Line_2" data-name="Line 2" x2="245.968" transform="translate(0 108.951)" fill="none" stroke="#484848" stroke-miterlimit="10" stroke-width="1.124"/>
        <line id="Line_3" data-name="Line 3" x2="245.968" transform="translate(0 87.999)" fill="none" stroke="#484848" stroke-miterlimit="10" stroke-width="1.124"/>
        <line id="Line_4" data-name="Line 4" x2="245.968" transform="translate(0 65.999)" fill="none" stroke="#484848" stroke-miterlimit="10" stroke-width="1.124"/>
        <line id="Line_5" data-name="Line 5" x2="245.968" transform="translate(0 44)" fill="none" stroke="#484848" stroke-miterlimit="10" stroke-width="1.124"/>
        <line id="Line_6" data-name="Line 6" x2="245.968" transform="translate(0 23.048)" fill="none" stroke="#484848" stroke-miterlimit="10" stroke-width="1.124"/>
      </g>
      <line id="Line_7" data-name="Line 7" y2="131.999" transform="translate(122.984 0)" fill="none" stroke="#484848" stroke-miterlimit="10" stroke-width="1.124"/>
      <line id="Line_8" data-name="Line 8" y2="131.999" transform="translate(98.387 0)" fill="none" stroke="#484848" stroke-miterlimit="10" stroke-width="1.124"/>
      <line id="Line_9" data-name="Line 9" y2="131.999" transform="translate(73.79 0)" fill="none" stroke="#484848" stroke-miterlimit="10" stroke-width="1.124"/>
      <line id="Line_10" data-name="Line 10" y2="131.999" transform="translate(49.194 0)" fill="none" stroke="#484848" stroke-miterlimit="10" stroke-width="1.124"/>
      <line id="Line_11" data-name="Line 11" y2="131.999" transform="translate(24.597 0)" fill="none" stroke="#484848" stroke-miterlimit="10" stroke-width="1.124"/>
      <line id="Line_12" data-name="Line 12" y2="131.999" transform="translate(196.774 0)" fill="none" stroke="#484848" stroke-miterlimit="10" stroke-width="1.124"/>
      <line id="Line_13" data-name="Line 13" y2="131.999" transform="translate(172.178 0)" fill="none" stroke="#484848" stroke-miterlimit="10" stroke-width="1.124"/>
      <line id="Line_14" data-name="Line 14" y2="131.999" transform="translate(147.581 0)" fill="none" stroke="#484848" stroke-miterlimit="10" stroke-width="1.124"/>
      <line id="Line_15" data-name="Line 15" y2="131.999" transform="translate(221.371 0)" fill="none" stroke="#484848" stroke-miterlimit="10" stroke-width="1.124"/>
    </g>
    <g id="Group_118" data-name="Group 118" transform="translate(70.164 72.666)">
      <g id="Group_116" data-name="Group 116" transform="translate(0)">
        <rect id="Rectangle_81" data-name="Rectangle 81" width="21.758" height="94.594" transform="translate(0 19.518)" fill="#ffa5a8"/>
        <rect id="Rectangle_82" data-name="Rectangle 82" width="21.758" height="47.657" transform="translate(26.671 66.455)" fill="#ffa5a8"/>
        <rect id="Rectangle_83" data-name="Rectangle 83" width="21.758" height="101.148" transform="translate(53.341 12.965)" fill="#ffa5a8"/>
        <rect id="Rectangle_84" data-name="Rectangle 84" width="21.758" height="114.112" transform="translate(80.012)" fill="#ffa5a8"/>
        <rect id="Rectangle_85" data-name="Rectangle 85" width="21.758" height="82.229" transform="translate(106.682 31.883)" fill="#ffa5a8"/>
        <rect id="Rectangle_86" data-name="Rectangle 86" width="21.758" height="114.112" transform="translate(133.353)" fill="#ffa5a8"/>
        <rect id="Rectangle_87" data-name="Rectangle 87" width="21.758" height="91.833" transform="translate(160.023 22.279)" fill="#ffa5a8"/>
        <rect id="Rectangle_88" data-name="Rectangle 88" width="21.758" height="106.19" transform="translate(186.694 7.923)" fill="#ffa5a8"/>
      </g>
      <g id="Group_117" data-name="Group 117" transform="translate(0)">
        <rect id="Rectangle_89" data-name="Rectangle 89" width="21.758" height="33.372" transform="translate(0 22.95)" fill="#fff"/>
        <rect id="Rectangle_90" data-name="Rectangle 90" width="21.758" height="17.406" transform="translate(26.671 66.455)" fill="#fff"/>
        <rect id="Rectangle_91" data-name="Rectangle 91" width="21.758" height="31.811" transform="translate(53.341 12.965)" fill="#fff"/>
        <rect id="Rectangle_92" data-name="Rectangle 92" width="21.758" height="68.184" transform="translate(80.012)" fill="#fff"/>
        <rect id="Rectangle_93" data-name="Rectangle 93" width="21.758" height="23.168" transform="translate(106.682 34.589)" fill="#fff"/>
        <rect id="Rectangle_94" data-name="Rectangle 94" width="21.758" height="46.937" transform="translate(133.353)" fill="#fff"/>
        <rect id="Rectangle_95" data-name="Rectangle 95" width="21.758" height="53.659" transform="translate(160.023 22.279)" fill="#fff"/>
        <rect id="Rectangle_96" data-name="Rectangle 96" width="21.758" height="46.577" transform="translate(186.694 7.923)" fill="#fff"/>
      </g>
    </g>
    <g id="Group_135" data-name="Group 135" transform="translate(68.936 57.122)">
      <g id="Group_119" data-name="Group 119" transform="translate(0 18.367)">
        <rect id="Rectangle_97" data-name="Rectangle 97" width="0.87" height="27.995" transform="translate(1.741)" fill="#a0b9d9"/>
        <rect id="Rectangle_98" data-name="Rectangle 98" width="4.352" height="13.685" transform="translate(0 7.02)" fill="#4274b3"/>
      </g>
      <g id="Group_120" data-name="Group 120" transform="translate(30.431 49.338)">
        <rect id="Rectangle_99" data-name="Rectangle 99" width="0.87" height="20.162" transform="translate(1.741)" fill="#a0b9d9"/>
        <rect id="Rectangle_100" data-name="Rectangle 100" width="4.352" height="6.962" transform="translate(0 7.02)" fill="#4274b3"/>
      </g>
      <g id="Group_121" data-name="Group 121" transform="translate(42.856 20.745)">
        <rect id="Rectangle_101" data-name="Rectangle 101" width="0.87" height="27.995" transform="translate(1.741)" fill="#a0b9d9"/>
        <rect id="Rectangle_102" data-name="Rectangle 102" width="4.352" height="17.602" transform="translate(0 4.844)" fill="#4274b3"/>
      </g>
      <g id="Group_122" data-name="Group 122" transform="translate(59.782 0.36)">
        <rect id="Rectangle_103" data-name="Rectangle 103" width="0.87" height="27.995" transform="translate(1.741)" fill="#a0b9d9"/>
        <rect id="Rectangle_104" data-name="Rectangle 104" width="4.352" height="9.768" transform="translate(0 4.409)" fill="#4274b3"/>
      </g>
      <g id="Group_123" data-name="Group 123" transform="translate(70.226 41.055)">
        <rect id="Rectangle_105" data-name="Rectangle 105" width="0.87" height="27.995" transform="translate(1.741)" fill="#a0b9d9"/>
        <rect id="Rectangle_106" data-name="Rectangle 106" width="4.352" height="18.907" transform="translate(0 4.409)" fill="#4274b3"/>
      </g>
      <g id="Group_124" data-name="Group 124" transform="translate(83.55 12.485)">
        <rect id="Rectangle_107" data-name="Rectangle 107" width="0.87" height="21.467" transform="translate(1.741)" fill="#a0b9d9"/>
        <rect id="Rectangle_108" data-name="Rectangle 108" width="4.352" height="10.203" transform="translate(0 5.28)" fill="#4274b3"/>
      </g>
      <g id="Group_125" data-name="Group 125" transform="translate(97.055 31.631)">
        <rect id="Rectangle_109" data-name="Rectangle 109" width="1.047" height="27.995" transform="translate(2.095)" fill="#a0b9d9"/>
        <rect id="Rectangle_110" data-name="Rectangle 110" width="5.237" height="15.426" transform="translate(0 5.28)" fill="#4274b3"/>
      </g>
      <g id="Group_126" data-name="Group 126" transform="translate(108.677 8.673)">
        <rect id="Rectangle_111" data-name="Rectangle 111" width="1.047" height="14.069" transform="translate(2.095)" fill="#a0b9d9"/>
        <rect id="Rectangle_112" data-name="Rectangle 112" width="5.237" height="5.042" transform="translate(0 2.669)" fill="#4274b3"/>
      </g>
      <g id="Group_127" data-name="Group 127" transform="translate(194.967 15.503)">
        <rect id="Rectangle_113" data-name="Rectangle 113" width="1.047" height="14.069" transform="matrix(0.999, -0.032, 0.032, 0.999, 2.007, 0.034)" fill="#a0b9d9"/>
        <rect id="Rectangle_114" data-name="Rectangle 114" width="5.237" height="5.042" transform="matrix(0.999, -0.032, 0.032, 0.999, 0, 2.769)" fill="#4274b3"/>
      </g>
      <g id="Group_128" data-name="Group 128" transform="translate(18.007 27.73)">
        <rect id="Rectangle_115" data-name="Rectangle 115" width="0.87" height="27.995" transform="translate(1.741)" fill="#a0b9d9"/>
        <rect id="Rectangle_116" data-name="Rectangle 116" width="4.352" height="10.444" transform="translate(0 6.03)" fill="#4274b3"/>
      </g>
      <g id="Group_129" data-name="Group 129" transform="translate(118.76 30.206)">
        <rect id="Rectangle_117" data-name="Rectangle 117" width="1.047" height="27.995" transform="translate(2.095)" fill="#a0b9d9"/>
        <rect id="Rectangle_118" data-name="Rectangle 118" width="5.237" height="12.064" transform="translate(0 11.702)" fill="#4274b3"/>
      </g>
      <g id="Group_130" data-name="Group 130" transform="translate(133.706 3.766)">
        <rect id="Rectangle_119" data-name="Rectangle 119" width="1.047" height="27.995" transform="translate(2.095)" fill="#a0b9d9"/>
        <rect id="Rectangle_120" data-name="Rectangle 120" width="5.237" height="19.207" transform="translate(0 4.68)" fill="#4274b3"/>
      </g>
      <g id="Group_131" data-name="Group 131" transform="translate(149.371 34.783)">
        <rect id="Rectangle_121" data-name="Rectangle 121" width="1.047" height="23.643" transform="translate(2.095)" fill="#a0b9d9"/>
        <rect id="Rectangle_122" data-name="Rectangle 122" width="5.237" height="10.264" transform="translate(0 6.09)" fill="#4274b3"/>
      </g>
      <g id="Group_132" data-name="Group 132" transform="translate(163.596 14.045)">
        <rect id="Rectangle_123" data-name="Rectangle 123" width="1.047" height="27.995" transform="translate(2.095)" fill="#a0b9d9"/>
        <rect id="Rectangle_124" data-name="Rectangle 124" width="5.237" height="13.685" transform="translate(0 4.409)" fill="#4274b3"/>
      </g>
      <g id="Group_133" data-name="Group 133" transform="translate(178.542)">
        <rect id="Rectangle_125" data-name="Rectangle 125" width="1.047" height="22.338" transform="translate(2.095)" fill="#a0b9d9"/>
        <rect id="Rectangle_126" data-name="Rectangle 126" width="5.237" height="8.028" transform="translate(0 7.02)" fill="#4274b3"/>
      </g>
      <g id="Group_134" data-name="Group 134" transform="translate(186.465 39.202)">
        <rect id="Rectangle_127" data-name="Rectangle 127" width="1.047" height="22.338" transform="translate(2.095)" fill="#a0b9d9"/>
        <rect id="Rectangle_128" data-name="Rectangle 128" width="5.237" height="8.028" transform="translate(0 7.02)" fill="#4274b3"/>
      </g>
    </g>
    <g id="Group_136" data-name="Group 136" transform="translate(48.784 59.624)">
      <path id="Path_208" data-name="Path 208" d="M68.105,202.641l65.063-64.091L159.1,152.7l66.264-47.784,29.771,26.136,47.3-40" transform="translate(-61.383 -81.849)" fill="none" stroke="#e14356" stroke-miterlimit="10" stroke-width="11.238"/>
      <circle id="Ellipse_51" data-name="Ellipse 51" cx="5.439" cy="5.439" r="5.439" transform="matrix(0.29, -0.957, 0.957, 0.29, 0, 124.422)" fill="#e14356"/>
      <circle id="Ellipse_52" data-name="Ellipse 52" cx="5.439" cy="5.439" r="5.439" transform="translate(64.158 56.495) rotate(-44.155)" fill="#e14356"/>
      <circle id="Ellipse_53" data-name="Ellipse 53" cx="5.439" cy="5.439" r="5.439" transform="translate(89.997 69.304) rotate(-40.05)" fill="#e14356"/>
      <circle id="Ellipse_54" data-name="Ellipse 54" cx="5.439" cy="5.439" r="5.439" transform="translate(157.512 27.933) rotate(-76.636)" fill="#e14356"/>
      <circle id="Ellipse_55" data-name="Ellipse 55" cx="5.439" cy="5.439" r="5.439" transform="translate(186.079 49.125) rotate(-45)" fill="#e14356"/>
      <path id="Path_209" data-name="Path 209" d="M661.06,67.289l-11.287,3.024-11.287,3.024,11.888,4.637,4.637,11.888,3.024-11.287Z" transform="translate(-410.892 -67.289)" fill="#e14356"/>
    </g>
    <g id="Group_137" data-name="Group 137" transform="translate(214.432 142.397)">
      <circle id="Ellipse_56" data-name="Ellipse 56" cx="10.855" cy="10.855" r="10.855" transform="translate(10.418 29.954) rotate(-64.476)" fill="none"/>
      <path id="Path_210" data-name="Path 210" d="M514.866,324.716a14.543,14.543,0,1,0,18.6,8.781A14.543,14.543,0,0,0,514.866,324.716Zm8.807,24.561a11.55,11.55,0,1,1,6.974-14.77A11.55,11.55,0,0,1,523.673,349.277Z" transform="translate(-494.884 -313.57)" fill="#f05b60"/>
      <path id="Path_211" data-name="Path 211" d="M527.412,329a24.915,24.915,0,0,0,.8-4.057L523.8,323.18a20.232,20.232,0,0,0-.031-2.46l4.338-2.044a24.977,24.977,0,0,0-.911-3.97l-4.736.184a20.526,20.526,0,0,0-1.08-2.354l3.13-3.629a24.712,24.712,0,0,0-2.4-3.206l-4.254,2.1a20.28,20.28,0,0,0-2.049-1.789l1.38-4.579a25.025,25.025,0,0,0-3.459-1.909l-3.034,3.645a20.416,20.416,0,0,0-2.7-.821l-.6-4.735a24.773,24.773,0,0,0-3.9-.319l-1.292,4.573a20.21,20.21,0,0,0-2.85.379l-2.468-4.071q-.933.256-1.86.587t-1.809.729l.681,4.712a20.239,20.239,0,0,0-2.441,1.518l-3.9-2.71a24.749,24.749,0,0,0-2.807,2.722l2.545,4.038a20.468,20.468,0,0,0-1.56,2.347l-4.659-.886a25.029,25.029,0,0,0-1.458,3.672l3.976,2.659a20.292,20.292,0,0,0-.445,2.683l-4.616,1.085a24.725,24.725,0,0,0,.182,4l4.723.814a20.57,20.57,0,0,0,.663,2.5l-3.774,2.867a24.954,24.954,0,0,0,1.819,3.644l4.648-1.178a20.269,20.269,0,0,0,1.539,1.92l-2.285,4.16a24.911,24.911,0,0,0,3.192,2.627L493,339.72a20.591,20.591,0,0,0,2.078,1.08l-.4,4.738a25.018,25.018,0,0,0,4.025,1.139l2.23-4.234a20.252,20.252,0,0,0,2.262.153l1.569,4.5a24.772,24.772,0,0,0,4.167-.583l.315-4.768q.533-.159,1.063-.348t1.042-.406l3.273,3.482a24.8,24.8,0,0,0,3.589-2.2l-1.648-4.472a20.215,20.215,0,0,0,1.649-1.556l4.413,1.853a25,25,0,0,0,2.384-3.437l-3.316-3.407a20.622,20.622,0,0,0,.918-2.154Zm-18.753,7.776a15.563,15.563,0,1,1,9.4-19.9A15.562,15.562,0,0,1,508.659,336.774Z" transform="translate(-478.516 -297.289)" fill="#f05b60"/>
    </g>
    <path id="Path_212" data-name="Path 212" d="M596.5,274.428a9.073,9.073,0,0,0-.65-1.155l1.047-1.784a10.785,10.785,0,0,0-1.228-1.31l-1.847.931a8.99,8.99,0,0,0-2.316-1.273l-.2-2.058a10.883,10.883,0,0,0-1.765-.34l-.947,1.837a8.9,8.9,0,0,0-2.623.33l-1.371-1.546q-.418.156-.829.349t-.8.416l.314,2.042a8.893,8.893,0,0,0-1.929,1.808l-2.019-.445a10.935,10.935,0,0,0-.865,1.575l1.456,1.468a8.982,8.982,0,0,0-.5,2.6l-1.9.827a10.761,10.761,0,0,0,.224,1.782l2.042.333a9.027,9.027,0,0,0,1.123,2.393l-1.047,1.783A10.813,10.813,0,0,0,581.1,286.3l1.847-.931a8.98,8.98,0,0,0,2.316,1.274l.2,2.058a10.881,10.881,0,0,0,1.765.34l.947-1.837a8.911,8.911,0,0,0,2.623-.33l1.371,1.545q.418-.156.829-.348c.274-.129.54-.268.8-.416l-.314-2.042a8.893,8.893,0,0,0,1.929-1.808l2.019.445a10.888,10.888,0,0,0,.865-1.575l-1.455-1.469a8.993,8.993,0,0,0,.5-2.6l1.9-.827a10.758,10.758,0,0,0-.224-1.782l-2.042-.333A9.01,9.01,0,0,0,596.5,274.428Zm-5.839,8.651a5.348,5.348,0,1,1,2.567-7.114A5.348,5.348,0,0,1,590.659,283.079Z" transform="translate(-324.758 -134.214)" fill="#f05b60"/>
    <path id="Path_213" data-name="Path 213" d="M525.516,236.8a12.8,12.8,0,0,0-.053-1.873l2.485-1.542a15.288,15.288,0,0,0-.674-2.449l-2.924-.051a12.717,12.717,0,0,0-2.06-3.118l1.1-2.708a15.426,15.426,0,0,0-1.985-1.587l-2.395,1.676a12.588,12.588,0,0,0-3.5-1.314l-.7-2.837q-.626-.08-1.267-.11c-.427-.019-.852-.02-1.272-.005l-.951,2.763a12.593,12.593,0,0,0-3.6.993l-2.234-1.886a15.432,15.432,0,0,0-2.12,1.4l.855,2.8a12.719,12.719,0,0,0-2.333,2.919l-2.917-.213a15.217,15.217,0,0,0-.893,2.378l2.335,1.76a12.777,12.777,0,0,0-.168,3.734l-2.485,1.542a15.247,15.247,0,0,0,.675,2.449l2.924.051a12.71,12.71,0,0,0,2.06,3.118l-1.1,2.708a15.429,15.429,0,0,0,1.985,1.587l2.394-1.677a12.576,12.576,0,0,0,3.5,1.314l.7,2.837c.417.053.84.091,1.267.11s.852.02,1.272.005l.951-2.763a12.585,12.585,0,0,0,3.6-.993l2.234,1.886a15.433,15.433,0,0,0,2.12-1.4l-.855-2.8a12.7,12.7,0,0,0,2.333-2.919l2.917.213a15.219,15.219,0,0,0,.892-2.378l-2.335-1.76A12.758,12.758,0,0,0,525.516,236.8Zm-13,6.982a7.562,7.562,0,1,1,7.9-7.213A7.562,7.562,0,0,1,512.513,243.786Z" transform="translate(-275.877 -105.052)" fill="#f05b60"/>
    <g id="Group_154" data-name="Group 154" transform="translate(105.397 155.418)">
      <g id="Group_149" data-name="Group 149">
        <g id="Group_138" data-name="Group 138" transform="translate(5.185)">
          <rect id="Rectangle_129" data-name="Rectangle 129" width="38.471" height="6.627" transform="translate(0 0)" fill="#f4dd39"/>
          <rect id="Rectangle_130" data-name="Rectangle 130" width="1.381" height="6.627" transform="translate(2.429 0)" fill="#cab886" style="mix-blend-mode: multiply;isolation: isolate"/>
          <rect id="Rectangle_131" data-name="Rectangle 131" width="1.381" height="6.627" transform="translate(6.496 0)" fill="#cab886" style="mix-blend-mode: multiply;isolation: isolate"/>
          <rect id="Rectangle_132" data-name="Rectangle 132" width="1.381" height="6.627" transform="translate(10.563 0)" fill="#cab886" style="mix-blend-mode: multiply;isolation: isolate"/>
          <rect id="Rectangle_133" data-name="Rectangle 133" width="1.381" height="6.627" transform="translate(14.629 0)" fill="#cab886" style="mix-blend-mode: multiply;isolation: isolate"/>
          <rect id="Rectangle_134" data-name="Rectangle 134" width="1.381" height="6.627" transform="translate(18.696 0)" fill="#cab886" style="mix-blend-mode: multiply;isolation: isolate"/>
          <rect id="Rectangle_135" data-name="Rectangle 135" width="1.381" height="6.627" transform="translate(22.762 0)" fill="#cab886" style="mix-blend-mode: multiply;isolation: isolate"/>
          <rect id="Rectangle_136" data-name="Rectangle 136" width="1.381" height="6.627" transform="translate(26.829)" fill="#cab886" style="mix-blend-mode: multiply;isolation: isolate"/>
          <rect id="Rectangle_137" data-name="Rectangle 137" width="1.381" height="6.627" transform="translate(30.895)" fill="#cab886" style="mix-blend-mode: multiply;isolation: isolate"/>
          <rect id="Rectangle_138" data-name="Rectangle 138" width="1.381" height="6.627" transform="translate(34.962)" fill="#cab886" style="mix-blend-mode: multiply;isolation: isolate"/>
        </g>
        <g id="Group_140" data-name="Group 140" transform="translate(0 6.627)">
          <g id="Group_139" data-name="Group 139">
            <rect id="Rectangle_139" data-name="Rectangle 139" width="38.471" height="6.627" transform="translate(0 0)" fill="#f4dd39"/>
            <rect id="Rectangle_140" data-name="Rectangle 140" width="1.381" height="6.627" transform="translate(2.429 0)" fill="#cab886" style="mix-blend-mode: multiply;isolation: isolate"/>
            <rect id="Rectangle_141" data-name="Rectangle 141" width="1.381" height="6.627" transform="translate(6.496 0)" fill="#cab886" style="mix-blend-mode: multiply;isolation: isolate"/>
            <rect id="Rectangle_142" data-name="Rectangle 142" width="1.381" height="6.627" transform="translate(10.563 0)" fill="#cab886" style="mix-blend-mode: multiply;isolation: isolate"/>
            <rect id="Rectangle_143" data-name="Rectangle 143" width="1.381" height="6.627" transform="translate(14.629 0)" fill="#cab886" style="mix-blend-mode: multiply;isolation: isolate"/>
            <rect id="Rectangle_144" data-name="Rectangle 144" width="1.381" height="6.627" transform="translate(18.696 0)" fill="#cab886" style="mix-blend-mode: multiply;isolation: isolate"/>
            <rect id="Rectangle_145" data-name="Rectangle 145" width="1.381" height="6.627" transform="translate(22.762 0)" fill="#cab886" style="mix-blend-mode: multiply;isolation: isolate"/>
            <rect id="Rectangle_146" data-name="Rectangle 146" width="1.381" height="6.627" transform="translate(26.829 0)" fill="#cab886" style="mix-blend-mode: multiply;isolation: isolate"/>
            <rect id="Rectangle_147" data-name="Rectangle 147" width="1.381" height="6.627" transform="translate(30.895)" fill="#cab886" style="mix-blend-mode: multiply;isolation: isolate"/>
            <rect id="Rectangle_148" data-name="Rectangle 148" width="1.381" height="6.627" transform="translate(34.962 0)" fill="#cab886" style="mix-blend-mode: multiply;isolation: isolate"/>
          </g>
          <rect id="Rectangle_149" data-name="Rectangle 149" width="38.471" height="0.931" transform="translate(0 0)" fill="#e4dbc2" style="mix-blend-mode: multiply;isolation: isolate"/>
        </g>
        <g id="Group_142" data-name="Group 142" transform="translate(4.884 13.254)">
          <g id="Group_141" data-name="Group 141">
            <rect id="Rectangle_150" data-name="Rectangle 150" width="38.471" height="6.627" transform="translate(0 0)" fill="#f4dd39"/>
            <rect id="Rectangle_151" data-name="Rectangle 151" width="1.381" height="6.627" transform="translate(2.429 0)" fill="#cab886" style="mix-blend-mode: multiply;isolation: isolate"/>
            <rect id="Rectangle_152" data-name="Rectangle 152" width="1.381" height="6.627" transform="translate(6.496 0)" fill="#cab886" style="mix-blend-mode: multiply;isolation: isolate"/>
            <rect id="Rectangle_153" data-name="Rectangle 153" width="1.381" height="6.627" transform="translate(10.563 0)" fill="#cab886" style="mix-blend-mode: multiply;isolation: isolate"/>
            <rect id="Rectangle_154" data-name="Rectangle 154" width="1.381" height="6.627" transform="translate(14.629 0)" fill="#cab886" style="mix-blend-mode: multiply;isolation: isolate"/>
            <rect id="Rectangle_155" data-name="Rectangle 155" width="1.381" height="6.627" transform="translate(18.696 0)" fill="#cab886" style="mix-blend-mode: multiply;isolation: isolate"/>
            <rect id="Rectangle_156" data-name="Rectangle 156" width="1.381" height="6.627" transform="translate(22.762 0)" fill="#cab886" style="mix-blend-mode: multiply;isolation: isolate"/>
            <rect id="Rectangle_157" data-name="Rectangle 157" width="1.381" height="6.627" transform="translate(26.829 0)" fill="#cab886" style="mix-blend-mode: multiply;isolation: isolate"/>
            <rect id="Rectangle_158" data-name="Rectangle 158" width="1.381" height="6.627" transform="translate(30.895)" fill="#cab886" style="mix-blend-mode: multiply;isolation: isolate"/>
            <rect id="Rectangle_159" data-name="Rectangle 159" width="1.381" height="6.627" transform="translate(34.962)" fill="#cab886" style="mix-blend-mode: multiply;isolation: isolate"/>
          </g>
          <rect id="Rectangle_160" data-name="Rectangle 160" width="38.471" height="0.931" transform="translate(0 0)" fill="#e4dbc2" style="mix-blend-mode: multiply;isolation: isolate"/>
        </g>
        <g id="Group_144" data-name="Group 144" transform="translate(8.241 19.881)">
          <g id="Group_143" data-name="Group 143">
            <rect id="Rectangle_161" data-name="Rectangle 161" width="38.471" height="6.627" transform="translate(0 0)" fill="#f4dd39"/>
            <rect id="Rectangle_162" data-name="Rectangle 162" width="1.381" height="6.627" transform="translate(2.429 0)" fill="#cab886" style="mix-blend-mode: multiply;isolation: isolate"/>
            <rect id="Rectangle_163" data-name="Rectangle 163" width="1.381" height="6.627" transform="translate(6.496 0)" fill="#cab886" style="mix-blend-mode: multiply;isolation: isolate"/>
            <rect id="Rectangle_164" data-name="Rectangle 164" width="1.381" height="6.627" transform="translate(10.563 0)" fill="#cab886" style="mix-blend-mode: multiply;isolation: isolate"/>
            <rect id="Rectangle_165" data-name="Rectangle 165" width="1.381" height="6.627" transform="translate(14.629 0)" fill="#cab886" style="mix-blend-mode: multiply;isolation: isolate"/>
            <rect id="Rectangle_166" data-name="Rectangle 166" width="1.381" height="6.627" transform="translate(18.696 0)" fill="#cab886" style="mix-blend-mode: multiply;isolation: isolate"/>
            <rect id="Rectangle_167" data-name="Rectangle 167" width="1.381" height="6.627" transform="translate(22.762 0)" fill="#cab886" style="mix-blend-mode: multiply;isolation: isolate"/>
            <rect id="Rectangle_168" data-name="Rectangle 168" width="1.381" height="6.627" transform="translate(26.829 0)" fill="#cab886" style="mix-blend-mode: multiply;isolation: isolate"/>
            <rect id="Rectangle_169" data-name="Rectangle 169" width="1.381" height="6.627" transform="translate(30.895)" fill="#cab886" style="mix-blend-mode: multiply;isolation: isolate"/>
            <rect id="Rectangle_170" data-name="Rectangle 170" width="1.381" height="6.627" transform="translate(34.962)" fill="#cab886" style="mix-blend-mode: multiply;isolation: isolate"/>
          </g>
          <rect id="Rectangle_171" data-name="Rectangle 171" width="38.471" height="0.931" transform="translate(0 0)" fill="#e4dbc2" style="mix-blend-mode: multiply;isolation: isolate"/>
        </g>
        <g id="Group_146" data-name="Group 146" transform="translate(1.635 26.508)">
          <g id="Group_145" data-name="Group 145">
            <rect id="Rectangle_172" data-name="Rectangle 172" width="38.471" height="6.627" transform="translate(0 0)" fill="#f4dd39"/>
            <rect id="Rectangle_173" data-name="Rectangle 173" width="1.381" height="6.627" transform="translate(2.429 0)" fill="#cab886" style="mix-blend-mode: multiply;isolation: isolate"/>
            <rect id="Rectangle_174" data-name="Rectangle 174" width="1.381" height="6.627" transform="translate(6.496 0)" fill="#cab886" style="mix-blend-mode: multiply;isolation: isolate"/>
            <rect id="Rectangle_175" data-name="Rectangle 175" width="1.381" height="6.627" transform="translate(10.563 0)" fill="#cab886" style="mix-blend-mode: multiply;isolation: isolate"/>
            <rect id="Rectangle_176" data-name="Rectangle 176" width="1.381" height="6.627" transform="translate(14.629 0)" fill="#cab886" style="mix-blend-mode: multiply;isolation: isolate"/>
            <rect id="Rectangle_177" data-name="Rectangle 177" width="1.381" height="6.627" transform="translate(18.696 0)" fill="#cab886" style="mix-blend-mode: multiply;isolation: isolate"/>
            <rect id="Rectangle_178" data-name="Rectangle 178" width="1.381" height="6.627" transform="translate(22.762 0)" fill="#cab886" style="mix-blend-mode: multiply;isolation: isolate"/>
            <rect id="Rectangle_179" data-name="Rectangle 179" width="1.381" height="6.627" transform="translate(26.829)" fill="#cab886" style="mix-blend-mode: multiply;isolation: isolate"/>
            <rect id="Rectangle_180" data-name="Rectangle 180" width="1.381" height="6.627" transform="translate(30.895)" fill="#cab886" style="mix-blend-mode: multiply;isolation: isolate"/>
            <rect id="Rectangle_181" data-name="Rectangle 181" width="1.381" height="6.627" transform="translate(34.962)" fill="#cab886" style="mix-blend-mode: multiply;isolation: isolate"/>
          </g>
          <rect id="Rectangle_182" data-name="Rectangle 182" width="38.471" height="0.931" transform="translate(0 0)" fill="#e4dbc2" style="mix-blend-mode: multiply;isolation: isolate"/>
        </g>
        <g id="Group_148" data-name="Group 148" transform="translate(6.519 33.135)">
          <g id="Group_147" data-name="Group 147">
            <rect id="Rectangle_183" data-name="Rectangle 183" width="38.471" height="6.627" transform="translate(0 0)" fill="#f4dd39"/>
            <rect id="Rectangle_184" data-name="Rectangle 184" width="1.381" height="6.627" transform="translate(2.429 0)" fill="#cab886" style="mix-blend-mode: multiply;isolation: isolate"/>
            <rect id="Rectangle_185" data-name="Rectangle 185" width="1.381" height="6.627" transform="translate(6.496 0)" fill="#cab886" style="mix-blend-mode: multiply;isolation: isolate"/>
            <rect id="Rectangle_186" data-name="Rectangle 186" width="1.381" height="6.627" transform="translate(10.563 0)" fill="#cab886" style="mix-blend-mode: multiply;isolation: isolate"/>
            <rect id="Rectangle_187" data-name="Rectangle 187" width="1.381" height="6.627" transform="translate(14.629 0)" fill="#cab886" style="mix-blend-mode: multiply;isolation: isolate"/>
            <rect id="Rectangle_188" data-name="Rectangle 188" width="1.381" height="6.627" transform="translate(18.696 0)" fill="#cab886" style="mix-blend-mode: multiply;isolation: isolate"/>
            <rect id="Rectangle_189" data-name="Rectangle 189" width="1.381" height="6.627" transform="translate(22.762 0)" fill="#cab886" style="mix-blend-mode: multiply;isolation: isolate"/>
            <rect id="Rectangle_190" data-name="Rectangle 190" width="1.381" height="6.627" transform="translate(26.829)" fill="#cab886" style="mix-blend-mode: multiply;isolation: isolate"/>
            <rect id="Rectangle_191" data-name="Rectangle 191" width="1.381" height="6.627" transform="translate(30.895)" fill="#cab886" style="mix-blend-mode: multiply;isolation: isolate"/>
            <rect id="Rectangle_192" data-name="Rectangle 192" width="1.381" height="6.627" transform="translate(34.962)" fill="#cab886" style="mix-blend-mode: multiply;isolation: isolate"/>
          </g>
          <rect id="Rectangle_193" data-name="Rectangle 193" width="38.471" height="0.931" transform="translate(0 0)" fill="#e4dbc2" style="mix-blend-mode: multiply;isolation: isolate"/>
        </g>
      </g>
      <path id="Path_214" data-name="Path 214" d="M286.368,372.074h-1.228V365.64c-8.437.92-15.017,8.434-15.017,17.567a18.31,18.31,0,0,0,2.2,8.748h14.451v-6.627h-4.884V378.7H288.5v-6.627Z" transform="translate(-241.784 -352.193)" fill="#ded3b4" style="mix-blend-mode: multiply;isolation: isolate"/>
      <g id="Group_153" data-name="Group 153" transform="translate(26.973 8.38)">
        <g id="Group_151" data-name="Group 151">
          <g id="Group_150" data-name="Group 150">
            <circle id="Ellipse_57" data-name="Ellipse 57" cx="16.279" cy="16.279" r="16.279" transform="translate(0 31.743) rotate(-77.154)" fill="#f4dd39"/>
            <circle id="Ellipse_58" data-name="Ellipse 58" cx="12.191" cy="12.191" r="12.191" transform="translate(7.3 7.3)" fill="#d6c8a1" style="mix-blend-mode: multiply;isolation: isolate"/>
            <path id="Path_215" data-name="Path 215" d="M286.491,384.563a12.191,12.191,0,0,1,19.947-9.405A12.191,12.191,0,1,0,289.885,393,12.15,12.15,0,0,1,286.491,384.563Z" transform="translate(-278.151 -364.106)" fill="#dacdaa" style="mix-blend-mode: multiply;isolation: isolate"/>
            <path id="Path_216" data-name="Path 216" d="M312.779,381.508a12.19,12.19,0,0,1-17.226,17.226,12.19,12.19,0,1,0,17.226-17.226Z" transform="translate(-284.341 -370.296)" fill="#f7e879" style="mix-blend-mode: overlay;isolation: isolate"/>
          </g>
        </g>
        <g id="Group_152" data-name="Group 152" transform="translate(14.778 8.722)">
          <text id="_" data-name="$" transform="translate(0.578 16.579)" fill="#d4c59c" font-size="15" font-family="SegoeUI, Segoe UI" style="mix-blend-mode: multiply;isolation: isolate"><tspan x="0" y="0">$</tspan></text>
          <text id="_2" data-name="$" transform="translate(0 16)" fill="#f5e14f" font-size="15" font-family="SegoeUI, Segoe UI"><tspan x="0" y="0">$</tspan></text>
        </g>
      </g>
    </g>
    <g id="Group_156" data-name="Group 156" transform="translate(47.544 101.427)">
      <path id="Path_217" data-name="Path 217" d="M59.254,421.251c-.023.205-2.219,5.743-.849,6.266s6,.326,6.527-.2-2.741-5.221-2.741-6.2S59.385,420.076,59.254,421.251Z" transform="translate(-53.924 -331.744)" fill="#4274b3"/>
      <path id="Path_218" data-name="Path 218" d="M103.851,421.906s-.615,4.394-.166,4.823,11.859.565,12.008.061c.591-2-7.967-4.362-8.416-4.851S103.851,421.906,103.851,421.906Z" transform="translate(-81.844 -332.561)" fill="#4274b3"/>
      <path id="Path_219" data-name="Path 219" d="M59.217,319.313s.021,9.6-.294,17.916a190.161,190.161,0,0,0,.507,22.315h3.724l4.58-33.182a166.8,166.8,0,0,0,3.427,16.545,160.409,160.409,0,0,0,5.124,16.637h4.83s-3.133-14.875-4.308-22.707S74.848,319.7,74.848,319.7Z" transform="translate(-54.441 -269.815)" fill="#282c49"/>
      <path id="Path_220" data-name="Path 220" d="M157.626,199.731a3.363,3.363,0,0,1,.587-2.611c.914-1.11,3.655-4.373,3.655-3.459s-1.11,2.48-1.305,2.937.13,1.11.261,1.893.392,1.371-.13,1.958a6.523,6.523,0,0,1-1.5,1.109l-1.044,2.154a3.269,3.269,0,0,1-1.24-.391,7.06,7.06,0,0,1-1.044-.848Z" transform="translate(-113.919 -192.722)" fill="#ef9ca5"/>
      <path id="Path_221" data-name="Path 221" d="M68.859,225.332s-3.786,1.893-4.765,3.459-3.264,7.963-4.308,15.338a119.7,119.7,0,0,0-1.175,12.27,83.184,83.184,0,0,0,9.725.783,23.727,23.727,0,0,0,6.657-.653,94.7,94.7,0,0,1,.914-11.487c.848-5.548,2.35-11.683,2.35-11.683s6.408-1.056,10.443-3.525A21.993,21.993,0,0,0,97.12,220.7a34.506,34.506,0,0,0,1.958-4.242l-2.611-1.305s-4.373,5.548-9.2,7.44a42.42,42.42,0,0,1-12.009,2.546,15.148,15.148,0,0,1-3.068-.2Z" transform="translate(-54.326 -205.988)" fill="#4274b3"/>
      <path id="Path_222" data-name="Path 222" d="M87.17,209.338s1.142,4.047,4.34,4.83,4.117-1.695,3.884-4.243c-.294-3.2-2.937-7.016-3.982-7.081s-4.047,3.2-4.308,4.242A5.186,5.186,0,0,0,87.17,209.338Z" transform="translate(-71.724 -198.447)" fill="#ef9ca5"/>
      <path id="Path_223" data-name="Path 223" d="M85.964,221.892l-2.154,8.419a3,3,0,0,0,3.426,1.795,2.228,2.228,0,0,0,1.86-2.415s-.816-.065-.587-1.534.848-3.786.848-3.786Z" transform="translate(-69.767 -210.119)" fill="#ef9ca5"/>
      <path id="Path_224" data-name="Path 224" d="M83.137,203.95a13.441,13.441,0,0,0-.571-2.646,2.217,2.217,0,0,0-.522-.816,6.029,6.029,0,0,1,1.795-2.447,10.451,10.451,0,0,1,2.594-1.485,1.794,1.794,0,0,1,1.516.6c.1-.549.306-1.6-.977-4.044-.907-1.723-3.626-2.359-4.689-.486-.579,1.021-.551,1.889-1.332,2.835a12.861,12.861,0,0,0-1.811,2.2c-.685,1.3.067,2.519.05,3.8-.007.472-.157,1.075.244,1.437C80.445,203.817,83.137,203.95,83.137,203.95Z" transform="translate(-66.728 -191.489)" fill="#282c49"/>
      <path id="Path_225" data-name="Path 225" d="M87.094,221.8s-1.5-.718-1.827.2.261,1.632,1.175,1.436a2.732,2.732,0,0,0,1.5-1.174Z" transform="translate(-70.603 -209.901)" fill="#ef9ca5"/>
      <path id="Path_226" data-name="Path 226" d="M95.106,255.6l-3.459,17.035,11.944-.131,3.394-16.839Z" transform="translate(-74.569 -230.775)" fill="#282c49"/>
      <g id="Group_155" data-name="Group 155" transform="translate(0 19.536)">
        <path id="Path_227" data-name="Path 227" d="M85.242,274.445,87,273.6a7,7,0,0,1,1.5-2.611,5.889,5.889,0,0,1,1.55-1.142l-.245,1.452s2.741-1.289,3.329-.832.049,2.382-1.4,3.288a15.489,15.489,0,0,1-3.892,1.444l-1.827,1.6Z" transform="translate(-70.644 -259.038)" fill="#ef9ca5"/>
        <path id="Path_228" data-name="Path 228" d="M61.686,241.943a13.677,13.677,0,0,0-12.858,8.811c-3.72,9.268,1.371,12.988,6.07,12.792s8.942-4.112,8.942-4.112l-1.11-2.415s-4.649,1.887-7.31,0c-3.59-2.546.914-4.96.914-4.96s-.471-2.179,2.023-6.592A17.744,17.744,0,0,1,61.686,241.943Z" transform="translate(-47.544 -241.939)" fill="#4274b3"/>
      </g>
      <path id="Path_229" data-name="Path 229" d="M109.935,254.61l.587-2.97,4.438.1-.359,3Z" transform="translate(-85.775 -228.348)" fill="#4a4e66"/>
      <path id="Path_230" data-name="Path 230" d="M60.571,291.18a8.878,8.878,0,0,0,5.017-.392,24.675,24.675,0,0,0,6.29-3.647" transform="translate(-55.527 -250.101)" fill="none" stroke="#7197c6" stroke-miterlimit="10" stroke-width="0.916"/>
      <path id="Path_231" data-name="Path 231" d="M66.187,264.7s-2.235,3.04-1.338,5.091c.334.764.973,1.573,2.839,1.909a9.671,9.671,0,0,0,5.515-.734" transform="translate(-58.018 -236.352)" fill="none" stroke="#7197c6" stroke-miterlimit="10" stroke-width="0.916"/>
    </g>
    <g id="Group_160" data-name="Group 160" transform="translate(107.166 84.862)">
      <path id="Path_232" data-name="Path 232" d="M390.312,427.393s-2.912,1.059-2.479,2.221c.378,1.014,6.471.129,9.078-.934s-.9-4.088-1.288-4.217S390.312,427.393,390.312,427.393Z" transform="translate(-315.656 -317.679)" fill="#282c49"/>
      <path id="Path_233" data-name="Path 233" d="M441.37,422.678s-2.143,2.617-1.285,3.513c.749.782,5.881-2.933,7.855-4.94s-2.445-3.4-2.85-3.364S441.37,422.678,441.37,422.678Z" transform="translate(-347.577 -313.651)" fill="#282c49"/>
      <path id="Path_234" data-name="Path 234" d="M394.445,351.43s.773,11.879,1.739,18.447.531,8.4.531,8.4-4.2,2.608-3.525,3.091,4.25-.725,5.312-1.787.58-1.738.58-1.738,1.642-14.149,2.028-18.978a30.608,30.608,0,0,0-.676-8.982s-2.9-2.414-4.056-1.642S394.445,351.43,394.445,351.43Z" transform="translate(-318.92 -270.883)" fill="#ef9ca5"/>
      <path id="Path_235" data-name="Path 235" d="M420.491,352.685s4.688,10.943,7.787,16.813,3.222,7.54,3.222,7.54-3.012,4.063-2.214,4.293,4.078-2.7,4.725-4.052a1.35,1.35,0,0,0-.587-1.918s-2.926-13.2-4.172-17.886a30.612,30.612,0,0,0-3.631-8.243s-3.537-1.311-4.371-.2S420.491,352.685,420.491,352.685Z" transform="translate(-335.693 -271.187)" fill="#ef9ca5"/>
      <path id="Path_236" data-name="Path 236" d="M394.477,296.343s-2.27,2.125-2.463,10.817a97.785,97.785,0,0,0,.676,14.68h20.571s-.966-9.851-2.221-15.646a25.292,25.292,0,0,0-5.409-10.334Z" transform="translate(-318.228 -238.878)" fill="#4274b3"/>
      <path id="Path_237" data-name="Path 237" d="M381.649,236.335a9.826,9.826,0,0,0-6.76,4.893c-2.082,3.77-6.439,10.237-6.439,10.237l-3.992,2.318,1.674,2.318s5.666-1.8,8.5-3.735,7.083-13.65,7.211-14.615A2.075,2.075,0,0,0,381.649,236.335Z" transform="translate(-301.359 -202.403)" fill="#5e89be"/>
      <path id="Path_238" data-name="Path 238" d="M406.567,203.862a4.339,4.339,0,0,1,5.264-2.9c4.056.966,3.815,5.36,4.845,6.2s4.746,1.953,5.795,4.829a8,8,0,0,1-3.541,9.835c-5.215,2.946-12.941.66-13.585-2.688s-1.094-8.177.129-10.688A10.079,10.079,0,0,0,406.567,203.862Z" transform="translate(-326.02 -180.635)" fill="#282c49"/>
      <path id="Path_239" data-name="Path 239" d="M399.854,236.774a23.6,23.6,0,0,0-3.042,7.484c-.531,2.946.531,15.549.531,15.549l11.831.676s1.593-14.728,2.125-15.935,2.318-5.73,2.318-5.73a13.748,13.748,0,0,0-6.181-2.286C403.864,236.039,400.385,236.195,399.854,236.774Z" transform="translate(-321.093 -202.343)" fill="#5e89be"/>
      <path id="Path_240" data-name="Path 240" d="M412.436,208.867s-1.7,3.786-4.93,4.091-3.775-2.245-3.181-4.7c.746-3.079,3.874-6.426,4.9-6.34s3.49,3.7,3.6,4.759A5.119,5.119,0,0,1,412.436,208.867Z" transform="translate(-325.66 -181.314)" fill="#ef9ca5"/>
      <path id="Path_241" data-name="Path 241" d="M412.941,220.456s-1.61,4.571-1.867,5.6.065,1.223.065,1.223,3.123.177,2.929.692-4.024,4.008-6.6,3.042a2.807,2.807,0,0,1-1.93-3.517c.065-.386.127-.394.127-.394l1.738-.209s1.417-5.151,1.867-5.6S412.941,220.456,412.941,220.456Z" transform="translate(-326.47 -192.673)" fill="#ef9ca5"/>
      <path id="Path_242" data-name="Path 242" d="M409.476,204.026a7.479,7.479,0,0,1,1.972-1.288,2.59,2.59,0,0,1,1.376-.241,20.569,20.569,0,0,1,1.61,3.332,16.527,16.527,0,0,1,.435,3.735s1.819-.6,2.109-1.465-.531-5.215-1.835-5.939-2.173-1.159-3.284-.725S409.476,204.026,409.476,204.026Z" transform="translate(-328.945 -180.911)" fill="#282c49"/>
      <path id="Path_243" data-name="Path 243" d="M422.832,222.111s1.481.708,1.8-.193-.258-1.61-1.159-1.417a2.7,2.7,0,0,0-1.481,1.159Z" transform="translate(-336.616 -192.681)" fill="#ef9ca5"/>
      <g id="Group_158" data-name="Group 158">
        <path id="Path_244" data-name="Path 244" d="M335.759,240.492l5.312,2.9-3.38,7.243-5.988-3.477Z" transform="translate(-281.288 -204.95)" fill="#484c64"/>
        <path id="Path_245" data-name="Path 245" d="M346.369,242.819l-5.022,9.529,44.684,23.05s2.775.155,4.6-3.638c1.98-4.1-1-6.02-1-6.02Z" transform="translate(-287.198 -206.376)" fill="#282c49"/>
        <g id="Group_157" data-name="Group 157">
          <path id="Path_246" data-name="Path 246" d="M233.611,153.235a26.269,26.269,0,1,0,24.9,27.573A26.269,26.269,0,0,0,233.611,153.235Z" transform="translate(-204.264 -151.461)" fill="#fff" opacity="0.3" style="mix-blend-mode: lighten;isolation: isolate"/>
          <path id="Path_247" data-name="Path 247" d="M230.948,148.746a28.008,28.008,0,1,0,26.545,29.4A28.007,28.007,0,0,0,230.948,148.746Zm-2.539,49.77a21.827,21.827,0,1,1,22.91-20.686A21.827,21.827,0,0,1,228.408,198.516Z" transform="translate(-201.512 -148.709)" fill="#3d415b"/>
          <path id="Path_248" data-name="Path 248" d="M243.431,179.6c-2.2-1.85-6.184-.47-8.9,3.081s-3.129,7.93-.929,9.78,6.184.47,8.9-3.081S245.631,181.453,243.431,179.6Z" transform="translate(-220.312 -167.136)" fill="#fff"/>
        </g>
      </g>
      <path id="Path_249" data-name="Path 249" d="M359.837,277.859c.589-1.01,2.715-2.4,4.455-1.427s0,4.524-1.74,4.455S359.35,278.695,359.837,277.859Z" transform="translate(-298.47 -226.771)" fill="#ef9ca5"/>
      <g id="Group_159" data-name="Group 159" transform="translate(86.986 34.769)">
        <path id="Path_250" data-name="Path 250" d="M439.839,315.51c-.325,1.123-2.046,2.992-3.972,2.472s-1.1-4.388.6-4.745S440.107,314.581,439.839,315.51Z" transform="translate(-431.42 -284.264)" fill="#ef9ca5"/>
        <path id="Path_251" data-name="Path 251" d="M439.446,310.68l1.835-2.849,2.7,1.255a29.432,29.432,0,0,1-1.642,3.187C441.764,313.095,439.446,310.68,439.446,310.68Z" transform="translate(-434.295 -280.982)" fill="#ef9ca5"/>
        <path id="Path_252" data-name="Path 252" d="M427.883,238.5a11.523,11.523,0,0,1,5.537,3.155c2.64,2.64,7.352,11.9,7.34,14.519-.016,3.606-5.151,12.265-5.151,12.265l-3.412-2.189s2.962-6.439,2.768-9.98-8.821-10.817-8.821-10.817Z" transform="translate(-426.144 -238.496)" fill="#5e89be"/>
      </g>
    </g>
    <g id="Group_165" data-name="Group 165" transform="translate(263.366 72.257)">
      <path id="Path_253" data-name="Path 253" d="M652.793,426.526c-.253.38-7.346,3.293-7.219,4.306s11.652.76,12.285.127-1.267-4.56-1.267-4.56Z" transform="translate(-629.815 -306.263)" fill="#282c49"/>
      <path id="Path_254" data-name="Path 254" d="M714.262,414.106s-1.355,6.966-.594,7.852,3.046-.04,4.566-2.066-1.01-7.354-1.01-7.354Z" transform="translate(-671.4 -297.769)" fill="#282c49"/>
      <path id="Path_255" data-name="Path 255" d="M652.755,310.353s-.161,10.682.76,22.545a156.61,156.61,0,0,0,3.166,22.038l4.789-.227s-.532-8.611-.736-17.885-.38-19.885-.38-19.885,2.28,12.792,7.346,22.8c4.251,8.4,8.992,12.032,8.992,12.032l3.926-2.407s-6.713-11.652-9.626-21.784a193.559,193.559,0,0,1-4.433-19.251Z" transform="translate(-634.21 -233.913)" fill="#4274b3"/>
      <path id="Path_256" data-name="Path 256" d="M643.662,194.932a45.373,45.373,0,0,0,1.572,11.748,45.994,45.994,0,0,0,5.57,11.607l7.828-.953s-5.9-7.722-7.837-11.974a89.322,89.322,0,0,1-3.705-10.589Z" transform="translate(-628.644 -164.33)" fill="#282c49"/>
      <path id="Path_257" data-name="Path 257" d="M653.261,244.729a25.552,25.552,0,0,0-4.085,13.489c-.19,8.169.221,13.678.221,13.678a44.556,44.556,0,0,0,8.612-.38c3.8-.649,7.093-1.52,7.093-1.52a145.3,145.3,0,0,1-1.583-15.768c-.19-7.029-1.52-10.259-3.8-10.829S653.261,244.729,653.261,244.729Z" transform="translate(-631.993 -194.062)" fill="#282c49"/>
      <g id="Group_164" data-name="Group 164" transform="translate(0)">
        <g id="Group_162" data-name="Group 162">
          <g id="Group_161" data-name="Group 161">
            <circle id="Ellipse_59" data-name="Ellipse 59" cx="16.247" cy="16.247" r="16.247" fill="#f4dd39"/>
            <circle id="Ellipse_60" data-name="Ellipse 60" cx="12.167" cy="12.167" r="12.167" transform="translate(4.08 4.08)" fill="#d6c8a1" style="mix-blend-mode: multiply;isolation: isolate"/>
            <path id="Path_258" data-name="Path 258" d="M616.457,139.827a12.167,12.167,0,0,1,19.907-9.387,12.166,12.166,0,1,0-16.52,17.809A12.125,12.125,0,0,1,616.457,139.827Z" transform="translate(-611.338 -122.616)" fill="#dacdaa" style="mix-blend-mode: multiply;isolation: isolate"/>
            <path id="Path_259" data-name="Path 259" d="M642.693,136.778A12.166,12.166,0,0,1,625.5,153.97a12.166,12.166,0,1,0,17.192-17.192Z" transform="translate(-617.516 -128.794)" fill="#f7e879" style="mix-blend-mode: overlay;isolation: isolate"/>
          </g>
        </g>
        <g id="Group_163" data-name="Group 163" transform="translate(11.543 5.467)">
          <text id="_3" data-name="$" transform="translate(0.577 16.578)" fill="#d4c59c" font-size="15" font-family="SegoeUI, Segoe UI" style="mix-blend-mode: multiply;isolation: isolate"><tspan x="0" y="0">$</tspan></text>
          <text id="_4" data-name="$" transform="translate(0 16)" fill="#f5e14f" font-size="15" font-family="SegoeUI, Segoe UI"><tspan x="0" y="0">$</tspan></text>
        </g>
      </g>
      <path id="Path_260" data-name="Path 260" d="M667.588,218.709s-2.691,3.066-5.819,2.416-3.127-3.319-1.858-5.453c1.593-2.678,5.732-3.637,6.674-3.257s2.209,3.326,2,4.35A5.031,5.031,0,0,1,667.588,218.709Z" transform="translate(-638.114 -175.092)" fill="#ef9ca5"/>
      <path id="Path_261" data-name="Path 261" d="M662.293,234.572a11.566,11.566,0,0,1,3.176-1.12c.877-.187,1.765-.314,2.656-.422a27.308,27.308,0,0,1-.625-4.8c.079-1.509.079-2.145.079-2.145l-4.211,2.3a18.2,18.2,0,0,1-.238,3.5A11.548,11.548,0,0,1,662.293,234.572Z" transform="translate(-640.061 -183.516)" fill="#ef9ca5"/>
      <path id="Path_262" data-name="Path 262" d="M612.542,185.77s.57-4.876-.064-5.953-1.2,2.026-1.2,2.026-3.1-4.939-3.8-4.686-1.013,3.673.19,5.636a14.216,14.216,0,0,0,2.533,3.1,18.978,18.978,0,0,0,0,2.217,6.69,6.69,0,0,0,.253,1.963l3.42-.95Z" transform="translate(-606.092 -153.531)" fill="#ef9ca5"/>
      <path id="Path_263" data-name="Path 263" d="M673.916,213.795a25.623,25.623,0,0,0,.522-3.182c0-.807-2.565-2.85-2.185-4.655a2.355,2.355,0,0,1,3.562-1.52c1,.855,1.235,3.467,1.52,4.037s1.092.047,1.377,1.045-.333,1.71.095,2.375a1.856,1.856,0,0,1-.38,2.66c-1.14,1.045-3.7,2.612-4.7,2.327a1.43,1.43,0,0,1-1.092-1.757A6.885,6.885,0,0,1,673.916,213.795Z" transform="translate(-646.141 -170.014)" fill="#282c49"/>
      <path id="Path_264" data-name="Path 264" d="M675.047,227.5s2.365.731,1.581,2c-.622,1-1.776.5-1.964-.594S675.047,227.5,675.047,227.5Z" transform="translate(-647.618 -184.383)" fill="#ef9ca5"/>
      <path id="Path_265" data-name="Path 265" d="M618.6,203.829a40.512,40.512,0,0,0,5.6,12.064c3.8,5.129,11.969,5.7,11.969,5.7l-5.034,9.5s-9.752-6.776-13.077-12.76-2.659-13.868-2.659-13.868Z" transform="translate(-611.294 -169.88)" fill="#282c49"/>
    </g>
  </g>
</svg>
